<?xml version="1.0" encoding="utf-8"?>
<!-- Generator: Adobe Illustrator 16.0.0, SVG Export Plug-In . SVG Version: 6.00 Build 0)  -->
<!DOCTYPE svg PUBLIC "-//W3C//DTD SVG 1.1//EN" "http://www.w3.org/Graphics/SVG/1.1/DTD/svg11.dtd">
<svg version="1.1" id="Layer_1" xmlns="http://www.w3.org/2000/svg" xmlns:xlink="http://www.w3.org/1999/xlink" x="0px" y="0px"
	 width="201.7px" height="33.479px" viewBox="0 0 201.7 33.479" enable-background="new 0 0 201.7 33.479" xml:space="preserve">
<g>
	<g>
		<path fill="#AA0000" d="M27.685,11.083v1.487c0,1.215,0.502,1.528,1.026,1.528c0.67,0,1.069-0.418,1.069-1.968h3.392
			c-0.042,2.744-1.32,4.272-4.439,4.272c-3.644,0-4.817-1.633-4.817-5.948c0-4.334,1.425-5.968,4.817-5.968
			c3.016,0,4.544,1.341,4.544,5.446v1.151L27.685,11.083L27.685,11.083z M29.758,8.528c0-1.193-0.251-1.738-1.047-1.738
			c-0.775,0-1.026,0.544-1.026,1.738v0.503h2.074V8.528z"/>
		<path d="M33.99,1.156h5.655c4.502,0,4.732,3.56,4.732,7.476c0,3.917-0.23,7.477-4.732,7.477H33.99V1.156z M37.885,13.302h0.775
			c1.507,0,1.696-0.629,1.696-4.671c0-4.042-0.188-4.671-1.696-4.671h-0.775V13.302z"/>
		<path d="M48.778,11.083v1.487c0,1.215,0.502,1.528,1.026,1.528c0.67,0,1.068-0.418,1.068-1.968h3.393
			c-0.042,2.744-1.319,4.272-4.439,4.272c-3.644,0-4.817-1.633-4.817-5.948c0-4.334,1.424-5.968,4.817-5.968
			c3.016,0,4.545,1.341,4.545,5.446v1.151L48.778,11.083L48.778,11.083z M50.85,8.528c0-1.193-0.251-1.738-1.047-1.738
			c-0.775,0-1.026,0.544-1.026,1.738v0.503h2.073V8.528z"/>
		<path d="M60.716,4.779h3.519V15.92c0,3.1-2.074,4.042-4.733,4.042c-2.43,0-4.335-0.607-4.398-3.183h3.392
			c0,0.565,0.356,0.88,0.942,0.88c0.566,0,1.152-0.147,1.152-1.404v-2.157h-0.041c-0.481,1.3-1.508,1.697-2.555,1.697
			c-1.508,0-3.309-0.879-3.309-5.591c0-4.377,1.298-5.718,3.498-5.718c1.047,0,2.073,0.502,2.492,1.864h0.042L60.716,4.779
			L60.716,4.779z M59.543,12.988c0.691,0,1.047-0.461,1.047-2.849c0-2.367-0.356-2.849-1.047-2.849
			c-0.712,0-1.089,0.481-1.089,2.849C58.454,12.528,58.832,12.988,59.543,12.988z"/>
		<path d="M65.2,4.779h3.644v1.8h0.042c0.419-1.361,1.424-2.094,2.534-2.094h0.607v3.519c-0.335-0.062-0.628-0.083-0.943-0.083
			c-1.34,0-2.115,0.523-2.115,2.011v6.178h-3.771L65.2,4.779L65.2,4.779z"/>
		<path d="M75.609,11.083v1.487c0,1.215,0.502,1.528,1.026,1.528c0.67,0,1.068-0.418,1.068-1.968h3.393
			c-0.042,2.744-1.319,4.272-4.439,4.272c-3.645,0-4.817-1.633-4.817-5.948c0-4.334,1.425-5.968,4.817-5.968
			c3.016,0,4.544,1.341,4.544,5.446v1.151L75.609,11.083L75.609,11.083z M77.683,8.528c0-1.193-0.251-1.738-1.047-1.738
			c-0.775,0-1.026,0.544-1.026,1.738v0.503h2.073V8.528z"/>
		<path d="M85.182,11.083v1.487c0,1.215,0.502,1.528,1.026,1.528c0.67,0,1.067-0.418,1.067-1.968h3.394
			c-0.042,2.744-1.32,4.272-4.439,4.272c-3.644,0-4.817-1.633-4.817-5.948c0-4.334,1.425-5.968,4.817-5.968
			c3.015,0,4.544,1.341,4.544,5.446v1.151L85.182,11.083L85.182,11.083z M87.255,8.528c0-1.193-0.251-1.738-1.047-1.738
			c-0.775,0-1.026,0.544-1.026,1.738v0.503h2.073V8.528z"/>
		<path d="M94.229,12.591c0,0.439,0.083,0.858,0.272,1.109c0.188,0.251,0.46,0.397,0.796,0.397c0.586,0,1.089-0.355,1.089-0.963
			c0-2.01-5.466-0.816-5.466-5.11c0-1.989,1.445-3.54,4.503-3.54c2.827,0,4.251,1.193,4.251,3.562h-3.267
			c0-0.963-0.377-1.257-1.005-1.257c-0.565,0-0.963,0.334-0.963,0.879c0,1.865,5.466,0.608,5.466,4.942
			c0,2.2-1.697,3.791-4.544,3.791c-3.163,0-4.44-1.341-4.44-3.811H94.229z"/>
		<path d="M100.724,11.962h3.519v4.147h-3.519V11.962z"/>
		<path d="M105.52,4.779h3.771v12.063c0,2.639-1.529,2.953-3.497,2.953c-0.545,0-1.152-0.042-1.697-0.104v-2.534
			c0.943,0,1.426-0.126,1.426-0.795V4.779H105.52z M105.52,1.156h3.771v2.805h-3.771V1.156z"/>
		<path d="M115.866,8.632c0-0.942-0.25-1.34-0.921-1.34s-0.922,0.398-0.922,1.34v7.477h-3.769V4.779h3.644v1.382h0.041
			c0.482-1.11,1.446-1.675,2.744-1.675c1.551,0,2.305,0.587,2.765,1.739c0.586-1.277,1.696-1.739,2.849-1.739
			c1.654,0,2.953,0.65,2.953,3.079v8.545h-3.771V8.633c0-0.942-0.25-1.34-0.921-1.34s-0.921,0.398-0.921,1.34v7.477h-3.77V8.632
			L115.866,8.632z"/>
		<path d="M126.215,1.156h3.77v14.953h-3.77V1.156z"/>
		<path d="M133.965,12.591c0,0.439,0.085,0.858,0.272,1.109c0.188,0.251,0.46,0.397,0.795,0.397c0.587,0,1.089-0.355,1.089-0.963
			c0-2.01-5.466-0.816-5.466-5.11c0-1.989,1.446-3.54,4.504-3.54c2.828,0,4.252,1.193,4.252,3.562h-3.267
			c0-0.963-0.378-1.257-1.007-1.257c-0.565,0-0.963,0.334-0.963,0.879c0,1.865,5.466,0.608,5.466,4.942
			c0,2.2-1.697,3.791-4.545,3.791c-3.163,0-4.44-1.341-4.44-3.811H133.965z"/>
		<path d="M140.458,11.962h3.519v4.147h-3.519V11.962z"/>
		<path d="M148.627,11.083v1.487c0,1.215,0.502,1.528,1.025,1.528c0.671,0,1.068-0.418,1.068-1.968h3.393
			c-0.042,2.744-1.32,4.272-4.439,4.272c-3.644,0-4.817-1.633-4.817-5.948c0-4.334,1.425-5.968,4.817-5.968
			c3.016,0,4.545,1.341,4.545,5.446v1.151L148.627,11.083L148.627,11.083z M150.699,8.528c0-1.193-0.251-1.738-1.047-1.738
			c-0.775,0-1.027,0.544-1.027,1.738v0.503h2.073L150.699,8.528L150.699,8.528z"/>
		<path d="M160.313,1.156h3.77v14.953h-3.644v-1.55h-0.042c-0.461,1.256-1.236,1.843-2.577,1.843c-2.533,0-3.392-2.011-3.392-6.199
			c0-4.272,1.382-5.718,3.477-5.718c1.068,0,1.989,0.419,2.366,1.572h0.042V1.156L160.313,1.156z M159.266,13.596
			c0.859,0,1.048-0.712,1.048-3.142c0-2.451-0.189-3.163-1.048-3.163c-0.879,0-1.067,0.712-1.067,3.163
			C158.198,12.884,158.387,13.596,159.266,13.596z"/>
		<path d="M165.152,4.779h3.77v7.477c0,0.943,0.251,1.34,0.922,1.34c0.67,0,0.922-0.397,0.922-1.34V4.779h3.769v11.33h-3.644v-1.383
			h-0.041c-0.481,1.11-1.445,1.675-2.744,1.675c-1.655,0-2.953-0.649-2.953-3.079V4.779L165.152,4.779z"/>
	</g>
	<g>
		<path fill="#9D9D9D" d="M0,28.096c0-2.537,0.716-3.692,2.348-3.692c1.632,0,2.349,1.154,2.349,3.692
			c0,2.535-0.716,3.69-2.349,3.69C0.716,31.786,0,30.631,0,28.096z M3.562,28.066c0-2.387-0.537-2.806-1.214-2.806
			c-0.676,0-1.213,0.418-1.213,2.806c0,2.448,0.538,2.865,1.213,2.865C3.024,30.931,3.562,30.514,3.562,28.066z"/>
		<path fill="#9D9D9D" d="M5.512,26.295h1.014v0.627h0.03c0.269-0.478,0.776-0.766,1.373-0.766c0.815,0,1.333,0.368,1.333,1.452
			v4.039H8.187v-3.67c0-0.697-0.208-0.966-0.746-0.966c-0.438,0-0.855,0.349-0.855,1.045v3.591H5.512V26.295z"/>
		<path fill="#9D9D9D" d="M10.229,24.544h1.074v7.103h-1.074V24.544z"/>
		<path fill="#9D9D9D" d="M12.317,24.464h1.075v1.075h-1.075V24.464z M12.317,26.295h1.075v5.352h-1.075V26.295z"/>
		<path fill="#9D9D9D" d="M14.357,26.295h1.014v0.627h0.03c0.269-0.478,0.776-0.766,1.373-0.766c0.815,0,1.333,0.368,1.333,1.452
			v4.039h-1.075v-3.67c0-0.697-0.208-0.966-0.746-0.966c-0.438,0-0.855,0.349-0.855,1.045v3.591h-1.075L14.357,26.295L14.357,26.295
			z"/>
		<path fill="#9D9D9D" d="M19.948,29.111v0.309c0,0.715,0.09,1.631,0.895,1.631c0.766,0,0.855-0.876,0.855-1.194h1.015
			c0,1.185-0.716,1.931-1.88,1.931c-0.875,0-1.958-0.257-1.958-2.734c0-1.403,0.298-2.896,1.979-2.896
			c1.493,0,1.89,0.895,1.89,2.387v0.568L19.948,29.111L19.948,29.111z M21.668,28.374v-0.288c0-0.678-0.218-1.194-0.826-1.194
			c-0.686,0-0.895,0.677-0.895,1.373v0.109H21.668L21.668,28.374z"/>
		<path fill="#9D9D9D" d="M25.719,24.544h1.134v6.147h2.745v0.955h-3.879V24.544z"/>
		<path fill="#9D9D9D" d="M30.017,24.544h1.134v6.147h2.745v0.955h-3.879V24.544z"/>
		<path fill="#9D9D9D" d="M34.444,24.544h1.771l1.254,5.262h0.02l1.233-5.262h1.731v7.103h-1.076v-5.909h-0.02l-1.432,5.909h-0.955
			l-1.433-5.909h-0.02v5.909h-1.075L34.444,24.544L34.444,24.544z"/>
		<path fill="#9D9D9D" d="M47.219,30.532c0,0.198,0.119,0.379,0.278,0.379c0.07,0,0.14-0.011,0.179-0.03v0.697
			c-0.129,0.059-0.318,0.129-0.527,0.129c-0.478,0-0.876-0.189-0.905-0.707h-0.021c-0.289,0.528-0.706,0.786-1.333,0.786
			c-0.855,0-1.393-0.479-1.393-1.503c0-1.193,0.517-1.442,1.243-1.682l0.836-0.228c0.388-0.11,0.627-0.219,0.627-0.687
			c0-0.487-0.169-0.796-0.736-0.796c-0.716,0-0.815,0.508-0.815,1.023h-1.014c0-1.133,0.467-1.76,1.88-1.76
			c0.944,0,1.702,0.368,1.702,1.313L47.219,30.532L47.219,30.532z M46.204,28.822c-0.279,0.219-0.876,0.348-1.194,0.498
			c-0.308,0.149-0.437,0.467-0.437,0.865c0,0.446,0.219,0.807,0.666,0.807c0.646,0,0.965-0.488,0.965-1.274V28.822z"/>
		<path fill="#9D9D9D" d="M48.194,26.295h1.014v0.627h0.03c0.269-0.478,0.776-0.766,1.373-0.766c0.815,0,1.333,0.368,1.333,1.452
			v4.039h-1.075v-3.67c0-0.697-0.208-0.966-0.746-0.966c-0.437,0-0.855,0.349-0.855,1.045v3.591h-1.074V26.295L48.194,26.295z"/>
		<path fill="#9D9D9D" d="M55.596,30.99h-0.021c-0.139,0.348-0.407,0.796-1.174,0.796c-1.253,0-1.75-1.045-1.75-2.886
			c0-2.378,0.835-2.746,1.651-2.746c0.577,0,1.015,0.289,1.213,0.766h0.02v-2.376h1.075v7.103h-1.014V30.99z M54.621,27.011
			c-0.617,0-0.835,0.498-0.835,1.94c0,1.213,0.159,1.979,0.906,1.979c0.736,0,0.905-0.757,0.905-1.901
			C55.596,27.746,55.447,27.011,54.621,27.011z"/>
		<path fill="#9D9D9D" d="M59.864,24.544h1.771l1.254,5.262h0.02l1.233-5.262h1.731v7.103h-1.074v-5.909h-0.02l-1.433,5.909H62.39
			l-1.433-5.909h-0.02v5.909h-1.075L59.864,24.544L59.864,24.544z"/>
		<path fill="#9D9D9D" d="M67.804,29.448v0.179c0,0.865,0.378,1.305,1.164,1.305c0.716,0,1.075-0.509,1.075-1.035
			c0-0.746-0.378-1.075-1.014-1.264l-0.776-0.269c-1.034-0.398-1.482-0.935-1.482-1.95c0-1.293,0.875-2.01,2.209-2.01
			c1.82,0,2.009,1.136,2.009,1.871v0.159h-1.134v-0.149c0-0.646-0.289-1.025-0.995-1.025c-0.487,0-0.955,0.27-0.955,1.025
			c0,0.607,0.308,0.916,1.064,1.204l0.766,0.278c1.005,0.358,1.442,0.905,1.442,1.881c0,1.511-0.915,2.138-2.348,2.138
			c-1.761,0-2.159-1.174-2.159-2.169v-0.169H67.804z"/>
		<path fill="#9D9D9D" d="M74.111,24.544h1.134v6.147h2.746v0.955h-3.88V24.544L74.111,24.544z"/>
		<path fill="#9D9D9D" d="M81.981,30.532c0,0.198,0.119,0.379,0.278,0.379c0.069,0,0.14-0.011,0.179-0.03v0.697
			c-0.129,0.059-0.318,0.129-0.527,0.129c-0.477,0-0.875-0.189-0.905-0.707h-0.02c-0.289,0.528-0.707,0.786-1.333,0.786
			c-0.855,0-1.392-0.479-1.392-1.503c0-1.193,0.518-1.442,1.243-1.682l0.835-0.228c0.388-0.11,0.627-0.219,0.627-0.687
			c0-0.487-0.168-0.796-0.736-0.796c-0.716,0-0.815,0.508-0.815,1.023h-1.016c0-1.133,0.468-1.76,1.88-1.76
			c0.945,0,1.702,0.368,1.702,1.313V30.532L81.981,30.532z M80.966,28.822c-0.278,0.219-0.875,0.348-1.193,0.498
			c-0.309,0.149-0.438,0.467-0.438,0.865c0,0.446,0.218,0.807,0.666,0.807c0.647,0,0.965-0.488,0.965-1.274V28.822z"/>
		<path fill="#9D9D9D" d="M82.589,26.295h1.114l0.746,4.219h0.019l0.796-4.219h1.213l0.796,4.219h0.02l0.737-4.219h1.075
			l-1.224,5.352h-1.204L85.84,27.49h-0.02l-0.766,4.157H83.8L82.589,26.295z"/>
		<path fill="#9D9D9D" d="M91.991,24.544h2.019c2.228,0,2.507,1.453,2.507,3.552c0,2.1-0.279,3.551-2.507,3.551h-2.019V24.544z
			 M93.124,30.79h0.936c0.936,0,1.323-0.615,1.323-2.694c0-2-0.338-2.695-1.323-2.695h-0.936V30.79z"/>
		<path fill="#9D9D9D" d="M98.258,29.111v0.309c0,0.715,0.09,1.631,0.894,1.631c0.767,0,0.856-0.876,0.856-1.194h1.015
			c0,1.185-0.716,1.931-1.88,1.931c-0.875,0-1.96-0.257-1.96-2.734c0-1.403,0.298-2.896,1.98-2.896c1.491,0,1.89,0.895,1.89,2.387
			v0.568L98.258,29.111L98.258,29.111z M99.979,28.374v-0.288c0-0.678-0.219-1.194-0.826-1.194c-0.686,0-0.895,0.677-0.895,1.373
			v0.109H99.979L99.979,28.374z"/>
		<path fill="#9D9D9D" d="M102.895,32.105c0,0.328,0.298,0.637,0.776,0.637c0.558,0,0.906-0.389,0.906-1.005V30.87h-0.02
			c-0.199,0.468-0.697,0.737-1.214,0.737c-1.253,0-1.601-1.233-1.601-2.696c0-1.175,0.179-2.756,1.7-2.756
			c0.627,0,1.075,0.408,1.174,0.796h0.02v-0.657h1.014v5.094c0,1.304-0.556,2.089-2,2.089c-1.591,0-1.771-0.936-1.771-1.373
			L102.895,32.105L102.895,32.105z M103.651,30.752c0.835,0,0.926-1.056,0.926-1.901c0-0.875-0.11-1.84-0.856-1.84
			c-0.775,0-0.906,0.796-0.906,1.791C102.815,29.717,102.855,30.752,103.651,30.752z"/>
		<path fill="#9D9D9D" d="M106.546,26.295h1.074v0.836h0.019c0.239-0.598,0.637-0.976,1.244-0.976c0.119,0,0.189,0.021,0.259,0.04
			v1.095c-0.079-0.021-0.269-0.061-0.448-0.061c-0.487,0-1.074,0.218-1.074,1.214v3.203h-1.074V26.295z"/>
		<path fill="#9D9D9D" d="M110.427,29.111v0.309c0,0.715,0.089,1.631,0.894,1.631c0.766,0,0.856-0.876,0.856-1.194h1.016
			c0,1.185-0.716,1.931-1.881,1.931c-0.875,0-1.959-0.257-1.959-2.734c0-1.403,0.298-2.896,1.98-2.896
			c1.492,0,1.89,0.895,1.89,2.387v0.568L110.427,29.111L110.427,29.111z M112.147,28.374v-0.288c0-0.678-0.218-1.194-0.826-1.194
			c-0.686,0-0.894,0.677-0.894,1.373v0.109H112.147L112.147,28.374z"/>
		<path fill="#9D9D9D" d="M114.914,29.111v0.309c0,0.715,0.089,1.631,0.894,1.631c0.767,0,0.856-0.876,0.856-1.194h1.015
			c0,1.185-0.716,1.931-1.88,1.931c-0.875,0-1.96-0.257-1.96-2.734c0-1.403,0.298-2.896,1.98-2.896c1.492,0,1.89,0.895,1.89,2.387
			v0.568L114.914,29.111L114.914,29.111z M116.634,28.374v-0.288c0-0.678-0.218-1.194-0.826-1.194c-0.686,0-0.894,0.677-0.894,1.373
			v0.109H116.634L116.634,28.374z"/>
		<path fill="#9D9D9D" d="M120.783,27.857v-0.139c0-0.428-0.15-0.826-0.706-0.826c-0.429,0-0.766,0.199-0.766,0.696
			c0,0.417,0.188,0.586,0.756,0.786l0.686,0.238c0.797,0.269,1.164,0.697,1.164,1.542c0,1.144-0.835,1.632-1.919,1.632
			c-1.353,0-1.761-0.628-1.761-1.662v-0.199h0.955v0.169c0,0.617,0.219,0.955,0.835,0.955c0.587,0,0.876-0.298,0.876-0.785
			c0-0.397-0.208-0.655-0.587-0.786l-0.876-0.309c-0.806-0.278-1.144-0.686-1.144-1.541c0-1.005,0.727-1.473,1.831-1.473
			c1.363,0,1.671,0.796,1.671,1.461v0.24H120.783z"/>
		<path fill="#9D9D9D" d="M124.344,28.294h4.975v0.955h-4.975V28.294z"/>
		<path fill="#9D9D9D" d="M133.03,24.544h1.452l1.871,7.103h-1.183l-0.439-1.739h-2.078l-0.458,1.739h-1.184L133.03,24.544z
			 M134.543,29.001l-0.815-3.501h-0.02l-0.847,3.501H134.543z"/>
		<path fill="#9D9D9D" d="M136.663,26.295h1.014v0.627h0.03c0.269-0.478,0.775-0.766,1.373-0.766c0.815,0,1.333,0.368,1.333,1.452
			v4.039h-1.075v-3.67c0-0.697-0.209-0.966-0.747-0.966c-0.436,0-0.854,0.349-0.854,1.045v3.591h-1.073V26.295L136.663,26.295z"/>
		<path fill="#9D9D9D" d="M142.045,26.295l0.925,4.019h0.021l0.855-4.019h1.123l-1.472,5.551c-0.418,1.463-0.766,1.651-1.872,1.632
			c-0.138,0-0.287-0.02-0.427-0.04v-0.855c0.119,0.02,0.229,0.041,0.348,0.041c0.368,0,0.607-0.081,0.728-0.419l0.139-0.437
			l-1.522-5.472L142.045,26.295L142.045,26.295z"/>
		<path fill="#9D9D9D" d="M144.97,26.295h0.736v-1.521h1.074v1.521h0.875v0.796h-0.875v3.193c0,0.418,0.118,0.566,0.486,0.566
			c0.16,0,0.291-0.01,0.389-0.029v0.796c-0.229,0.06-0.526,0.09-0.865,0.09c-0.727,0-1.084-0.2-1.084-1.294v-3.322h-0.736V26.295
			L144.97,26.295z"/>
		<path fill="#9D9D9D" d="M148.145,24.464h1.074v1.075h-1.074V24.464z M148.145,26.295h1.074v5.352h-1.074V26.295z"/>
		<path fill="#9D9D9D" d="M150.233,26.295h1.015v0.627h0.029c0.27-0.478,0.776-0.766,1.284-0.766c0.766,0,1.083,0.368,1.243,0.815
			c0.309-0.518,0.707-0.815,1.354-0.815c0.756,0,1.303,0.388,1.303,1.422v4.069h-1.074v-3.67c0-0.697-0.208-0.966-0.647-0.966
			c-0.437,0-0.854,0.349-0.854,1.045v3.591h-1.074v-3.67c0-0.697-0.21-0.966-0.658-0.966c-0.428,0-0.845,0.349-0.845,1.045v3.591
			h-1.075L150.233,26.295L150.233,26.295z"/>
		<path fill="#9D9D9D" d="M158.353,29.111v0.309c0,0.715,0.089,1.631,0.895,1.631c0.767,0,0.855-0.876,0.855-1.194h1.014
			c0,1.185-0.715,1.931-1.88,1.931c-0.875,0-1.959-0.257-1.959-2.734c0-1.403,0.299-2.896,1.98-2.896c1.492,0,1.89,0.895,1.89,2.387
			v0.568L158.353,29.111L158.353,29.111z M160.072,28.374v-0.288c0-0.678-0.219-1.194-0.825-1.194c-0.687,0-0.895,0.677-0.895,1.373
			v0.109H160.072L160.072,28.374z"/>
		<path fill="#9D9D9D" d="M161.656,30.333h1.133v1.313c0,0.785-0.258,1.362-1.133,1.532v-0.578c0.308-0.079,0.496-0.367,0.496-0.805
			v-0.149h-0.496V30.333z"/>
		<path fill="#9D9D9D" d="M166.759,24.544h1.452l1.871,7.103h-1.185l-0.438-1.739h-2.077l-0.458,1.739h-1.185L166.759,24.544z
			 M168.271,29.001l-0.816-3.501h-0.019l-0.847,3.501H168.271z"/>
		<path fill="#9D9D9D" d="M170.391,26.295h1.015v0.627h0.029c0.269-0.478,0.776-0.766,1.374-0.766c0.814,0,1.332,0.368,1.332,1.452
			v4.039h-1.074v-3.67c0-0.697-0.21-0.966-0.746-0.966c-0.437,0-0.855,0.349-0.855,1.045v3.591h-1.074V26.295L170.391,26.295z"/>
		<path fill="#9D9D9D" d="M175.773,26.295l0.925,4.019h0.019l0.856-4.019h1.124l-1.473,5.551c-0.417,1.463-0.766,1.651-1.871,1.632
			c-0.14,0-0.288-0.02-0.427-0.04v-0.855c0.118,0.02,0.229,0.041,0.348,0.041c0.367,0,0.607-0.081,0.727-0.419l0.139-0.437
			l-1.521-5.472L175.773,26.295L175.773,26.295z"/>
		<path fill="#9D9D9D" d="M178.808,26.295h1.114l0.746,4.219h0.02l0.797-4.219h1.213l0.796,4.219h0.02l0.736-4.219h1.075
			l-1.224,5.352h-1.205l-0.835-4.157h-0.021l-0.767,4.157h-1.252L178.808,26.295z"/>
		<path fill="#9D9D9D" d="M185.872,24.544h1.075v2.328l0.029,0.02c0.298-0.457,0.767-0.736,1.313-0.736
			c0.816,0,1.333,0.368,1.333,1.453v4.038h-1.074v-3.67c0-0.697-0.21-0.966-0.746-0.966c-0.438,0-0.854,0.349-0.854,1.045v3.591
			h-1.075V24.544L185.872,24.544z"/>
		<path fill="#9D9D9D" d="M191.464,29.111v0.309c0,0.715,0.089,1.631,0.895,1.631c0.767,0,0.855-0.876,0.855-1.194h1.016
			c0,1.185-0.717,1.931-1.88,1.931c-0.876,0-1.96-0.257-1.96-2.734c0-1.403,0.298-2.896,1.979-2.896
			c1.492,0,1.891,0.895,1.891,2.387v0.568L191.464,29.111L191.464,29.111z M193.186,28.374v-0.288c0-0.678-0.22-1.194-0.827-1.194
			c-0.687,0-0.895,0.677-0.895,1.373v0.109H193.186L193.186,28.374z"/>
		<path fill="#9D9D9D" d="M195.026,26.295h1.074v0.836h0.019c0.239-0.598,0.637-0.976,1.244-0.976c0.119,0,0.189,0.021,0.258,0.04
			v1.095c-0.08-0.021-0.269-0.061-0.447-0.061c-0.487,0-1.074,0.218-1.074,1.214v3.203h-1.075v-5.352H195.026z"/>
		<path fill="#9D9D9D" d="M198.905,29.111v0.309c0,0.715,0.089,1.631,0.896,1.631c0.766,0,0.855-0.876,0.855-1.194h1.015
			c0,1.185-0.716,1.931-1.881,1.931c-0.876,0-1.959-0.257-1.959-2.734c0-1.403,0.298-2.896,1.979-2.896
			c1.492,0,1.89,0.895,1.89,2.387v0.568L198.905,29.111L198.905,29.111z M200.626,28.374v-0.288c0-0.678-0.219-1.194-0.825-1.194
			c-0.686,0-0.896,0.677-0.896,1.373v0.109H200.626L200.626,28.374z"/>
	</g>
	<g>
		<rect x="0.538" y="0" fill="#AA0000" width="18.38" height="18.247"/>
		<polygon fill="none" stroke="#FFFFFF" stroke-width="0.5679" points="2.93,5.929 16.239,5.903 9.584,1.174 		"/>
		<path fill="none" stroke="#FFFFFF" stroke-width="0.5679" d="M7.806,16.6c0.532,0,0.962-0.431,0.962-0.963V7.669
			c0-0.532-0.431-0.963-0.962-0.963l0,0c-0.532,0-0.963,0.432-0.963,0.963v7.968C6.843,16.169,7.274,16.6,7.806,16.6L7.806,16.6z"/>
		<path fill="none" stroke="#FFFFFF" stroke-width="0.5679" d="M11.107,16.589c0.533,0,0.963-0.432,0.963-0.964V7.656
			c0-0.531-0.431-0.963-0.963-0.963l0,0c-0.532,0-0.964,0.432-0.964,0.963v7.968C10.143,16.156,10.575,16.589,11.107,16.589
			L11.107,16.589z"/>
		<path fill="none" stroke="#FFFFFF" stroke-width="0.5679" d="M14.096,6.742c-0.532,0-0.831,0.431-0.831,0.963v7.968
			c0,0.532,0.299,0.964,0.831,0.964"/>
		<path fill="none" stroke="#FFFFFF" stroke-width="0.5679" d="M4.756,16.656c0.532,0,0.832-0.43,0.832-0.962v-7.97
			c0-0.533-0.299-0.963-0.832-0.963"/>
		<rect x="1.069" y="0.596" fill="none" stroke="#FFFFFF" stroke-width="0.5522" width="17.318" height="17.119"/>
	</g>
</g>
</svg>
