<?xml version="1.0" encoding="utf-8"?>
<!-- Generator: Adobe Illustrator 16.0.0, SVG Export Plug-In . SVG Version: 6.00 Build 0)  -->
<!DOCTYPE svg PUBLIC "-//W3C//DTD SVG 1.1//EN" "http://www.w3.org/Graphics/SVG/1.1/DTD/svg11.dtd">
<svg version="1.1" id="Layer_1" xmlns="http://www.w3.org/2000/svg" xmlns:xlink="http://www.w3.org/1999/xlink" x="0px" y="0px"
	 width="253.701px" height="42.11px" viewBox="0 0 253.701 42.11" enable-background="new 0 0 253.701 42.11" xml:space="preserve">
<g>
	<g>
		<path fill="#AA0000" d="M34.822,13.94v1.87c0,1.528,0.632,1.923,1.291,1.923c0.843,0,1.344-0.527,1.344-2.476h4.267
			c-0.053,3.451-1.66,5.374-5.584,5.374c-4.583,0-6.059-2.054-6.059-7.481c0-5.452,1.792-7.507,6.059-7.507
			c3.793,0,5.716,1.686,5.716,6.849v1.449H34.822z M37.43,10.726c0-1.501-0.316-2.186-1.317-2.186c-0.975,0-1.291,0.685-1.291,2.186
			v0.633h2.608V10.726z"/>
		<path d="M42.753,1.454h7.113c5.663,0,5.953,4.478,5.953,9.404c0,4.926-0.29,9.404-5.953,9.404h-7.113V1.454z M47.652,16.732h0.975
			c1.896,0,2.133-0.791,2.133-5.875c0-5.083-0.237-5.875-2.133-5.875h-0.975V16.732z"/>
		<path d="M61.353,13.94v1.87c0,1.528,0.632,1.923,1.291,1.923c0.843,0,1.344-0.527,1.344-2.476h4.268
			c-0.053,3.451-1.66,5.374-5.584,5.374c-4.583,0-6.059-2.054-6.059-7.481c0-5.452,1.792-7.507,6.059-7.507
			c3.793,0,5.716,1.686,5.716,6.849v1.449H61.353z M63.96,10.726c0-1.501-0.316-2.186-1.317-2.186c-0.975,0-1.291,0.685-1.291,2.186
			v0.633h2.608V10.726z"/>
		<path d="M76.369,6.011h4.426v14.014c0,3.899-2.608,5.084-5.953,5.084c-3.056,0-5.453-0.764-5.532-4.004h4.267
			c0,0.711,0.448,1.107,1.185,1.107c0.712,0,1.449-0.185,1.449-1.766v-2.713h-0.052c-0.605,1.634-1.896,2.134-3.213,2.134
			c-1.897,0-4.162-1.106-4.162-7.033c0-5.505,1.633-7.191,4.399-7.191c1.317,0,2.608,0.632,3.135,2.345h0.052V6.011z M74.894,16.336
			c0.869,0,1.317-0.58,1.317-3.583c0-2.977-0.448-3.583-1.317-3.583c-0.896,0-1.37,0.606-1.37,3.583
			C73.524,15.757,73.999,16.336,74.894,16.336z"/>
		<path d="M82.009,6.011h4.583v2.265h0.053c0.527-1.712,1.791-2.634,3.187-2.634h0.764v4.426c-0.421-0.079-0.79-0.105-1.186-0.105
			c-1.686,0-2.66,0.658-2.66,2.529v7.771h-4.742V6.011z"/>
		<path d="M95.102,13.94v1.87c0,1.528,0.632,1.923,1.291,1.923c0.843,0,1.344-0.527,1.344-2.476h4.267
			c-0.053,3.451-1.659,5.374-5.584,5.374c-4.584,0-6.059-2.054-6.059-7.481c0-5.452,1.792-7.507,6.059-7.507
			c3.793,0,5.716,1.686,5.716,6.849v1.449H95.102z M97.71,10.726c0-1.501-0.316-2.186-1.317-2.186c-0.975,0-1.291,0.685-1.291,2.186
			v0.633h2.608V10.726z"/>
		<path d="M107.142,13.94v1.87c0,1.528,0.632,1.923,1.291,1.923c0.843,0,1.343-0.527,1.343-2.476h4.268
			c-0.053,3.451-1.66,5.374-5.584,5.374c-4.583,0-6.059-2.054-6.059-7.481c0-5.452,1.792-7.507,6.059-7.507
			c3.793,0,5.716,1.686,5.716,6.849v1.449H107.142z M109.75,10.726c0-1.501-0.316-2.186-1.317-2.186
			c-0.975,0-1.291,0.685-1.291,2.186v0.633h2.608V10.726z"/>
		<path d="M118.523,15.836c0,0.553,0.105,1.08,0.342,1.396s0.579,0.5,1.001,0.5c0.738,0,1.37-0.447,1.37-1.211
			c0-2.529-6.875-1.027-6.875-6.428c0-2.502,1.818-4.452,5.664-4.452c3.556,0,5.347,1.501,5.347,4.479h-4.11
			c0-1.212-0.474-1.581-1.264-1.581c-0.711,0-1.212,0.421-1.212,1.106c0,2.345,6.875,0.764,6.875,6.217
			c0,2.766-2.134,4.768-5.716,4.768c-3.978,0-5.585-1.686-5.585-4.794H118.523z"/>
		<path d="M126.691,15.046h4.426v5.216h-4.426V15.046z"/>
		<path d="M132.724,6.011h4.742v15.173c0,3.319-1.923,3.714-4.399,3.714c-0.685,0-1.449-0.052-2.134-0.131v-3.188
			c1.186,0,1.792-0.158,1.792-1V6.011z M132.724,1.454h4.742v3.529h-4.742V1.454z"/>
		<path d="M145.738,10.857c0-1.185-0.315-1.686-1.159-1.686c-0.843,0-1.159,0.501-1.159,1.686v9.404h-4.741V6.011h4.583v1.738h0.052
			c0.606-1.396,1.818-2.107,3.451-2.107c1.95,0,2.898,0.738,3.477,2.187c0.738-1.606,2.134-2.187,3.583-2.187
			c2.081,0,3.714,0.817,3.714,3.873v10.748h-4.742v-9.404c0-1.185-0.315-1.686-1.159-1.686s-1.159,0.501-1.159,1.686v9.404h-4.742
			V10.857z"/>
		<path d="M158.755,1.454h4.742v18.808h-4.742V1.454z"/>
		<path d="M168.502,15.836c0,0.553,0.106,1.08,0.343,1.396s0.579,0.5,1,0.5c0.738,0,1.37-0.447,1.37-1.211
			c0-2.529-6.875-1.027-6.875-6.428c0-2.502,1.818-4.452,5.664-4.452c3.557,0,5.348,1.501,5.348,4.479h-4.109
			c0-1.212-0.474-1.581-1.265-1.581c-0.712,0-1.212,0.421-1.212,1.106c0,2.345,6.875,0.764,6.875,6.217
			c0,2.766-2.134,4.768-5.716,4.768c-3.978,0-5.585-1.686-5.585-4.794H168.502z"/>
		<path d="M176.669,15.046h4.425v5.216h-4.425V15.046z"/>
		<path d="M186.944,13.94v1.87c0,1.528,0.632,1.923,1.29,1.923c0.844,0,1.344-0.527,1.344-2.476h4.267
			c-0.053,3.451-1.66,5.374-5.584,5.374c-4.583,0-6.059-2.054-6.059-7.481c0-5.452,1.792-7.507,6.059-7.507
			c3.793,0,5.716,1.686,5.716,6.849v1.449H186.944z M189.551,10.726c0-1.501-0.316-2.186-1.318-2.186
			c-0.974,0-1.29,0.685-1.29,2.186v0.633h2.607V10.726z"/>
		<path d="M201.644,1.454h4.741v18.808h-4.583v-1.949h-0.053c-0.58,1.58-1.555,2.318-3.241,2.318c-3.187,0-4.267-2.529-4.267-7.797
			c0-5.374,1.739-7.191,4.373-7.191c1.344,0,2.502,0.527,2.977,1.976h0.053V1.454z M200.326,17.101c1.08,0,1.318-0.896,1.318-3.952
			c0-3.082-0.238-3.978-1.318-3.978c-1.106,0-1.343,0.896-1.343,3.978C198.983,16.205,199.22,17.101,200.326,17.101z"/>
		<path d="M207.73,6.011h4.742v9.404c0,1.186,0.315,1.686,1.159,1.686c0.843,0,1.159-0.5,1.159-1.686V6.011h4.741v14.251h-4.583
			v-1.739h-0.053c-0.605,1.396-1.817,2.107-3.45,2.107c-2.082,0-3.715-0.816-3.715-3.873V6.011z"/>
	</g>
	<g>
		<path fill="#9D9D9D" d="M0,35.339c0-3.191,0.901-4.643,2.953-4.643c2.053,0,2.954,1.451,2.954,4.643
			c0,3.19-0.901,4.643-2.954,4.643C0.901,39.981,0,38.529,0,35.339z M4.48,35.301c0-3.002-0.676-3.529-1.527-3.529
			c-0.851,0-1.526,0.526-1.526,3.529c0,3.079,0.676,3.604,1.526,3.604C3.804,38.905,4.48,38.38,4.48,35.301z"/>
		<path fill="#9D9D9D" d="M6.933,33.074h1.276v0.789h0.037c0.338-0.601,0.977-0.963,1.727-0.963c1.026,0,1.677,0.463,1.677,1.827
			v5.08h-1.352v-4.616c0-0.877-0.262-1.215-0.938-1.215c-0.551,0-1.076,0.438-1.076,1.314v4.517H6.933V33.074z"/>
		<path fill="#9D9D9D" d="M12.865,30.872h1.352v8.934h-1.352V30.872z"/>
		<path fill="#9D9D9D" d="M15.493,30.771h1.352v1.352h-1.352V30.771z M15.493,33.074h1.352v6.732h-1.352V33.074z"/>
		<path fill="#9D9D9D" d="M18.058,33.074h1.276v0.789h0.037c0.338-0.601,0.976-0.963,1.727-0.963c1.026,0,1.677,0.463,1.677,1.827
			v5.08h-1.352v-4.616c0-0.877-0.263-1.215-0.938-1.215c-0.551,0-1.076,0.438-1.076,1.314v4.517h-1.352V33.074z"/>
		<path fill="#9D9D9D" d="M25.091,36.615v0.388c0,0.9,0.113,2.052,1.126,2.052c0.963,0,1.076-1.102,1.076-1.502h1.276
			c0,1.489-0.901,2.429-2.365,2.429c-1.101,0-2.464-0.325-2.464-3.441c0-1.764,0.375-3.641,2.49-3.641
			c1.877,0,2.377,1.125,2.377,3.002v0.714H25.091z M27.255,35.689v-0.363c0-0.851-0.275-1.502-1.039-1.502
			c-0.863,0-1.126,0.852-1.126,1.728v0.138H27.255z"/>
		<path fill="#9D9D9D" d="M32.349,30.872h1.427v7.732h3.453v1.201h-4.88V30.872z"/>
		<path fill="#9D9D9D" d="M37.755,30.872h1.426v7.732h3.453v1.201h-4.879V30.872z"/>
		<path fill="#9D9D9D" d="M43.324,30.872h2.228l1.577,6.618h0.025l1.551-6.618h2.178v8.934H49.53v-7.433h-0.025l-1.802,7.433h-1.201
			L44.7,32.373h-0.025v7.433h-1.352V30.872z"/>
		<path fill="#9D9D9D" d="M59.392,38.404c0,0.25,0.15,0.476,0.35,0.476c0.088,0,0.176-0.013,0.226-0.038v0.877
			c-0.163,0.074-0.4,0.162-0.663,0.162c-0.601,0-1.102-0.238-1.139-0.889H58.14c-0.363,0.664-0.888,0.989-1.676,0.989
			c-1.076,0-1.752-0.602-1.752-1.89c0-1.502,0.651-1.814,1.564-2.115l1.051-0.287c0.488-0.138,0.789-0.275,0.789-0.864
			c0-0.612-0.213-1.001-0.926-1.001c-0.901,0-1.026,0.639-1.026,1.288h-1.276c0-1.425,0.588-2.213,2.365-2.213
			c1.188,0,2.14,0.463,2.14,1.651V38.404z M58.116,36.252c-0.351,0.275-1.102,0.438-1.502,0.626c-0.388,0.188-0.55,0.588-0.55,1.088
			c0,0.563,0.275,1.015,0.838,1.015c0.813,0,1.214-0.614,1.214-1.603V36.252z"/>
		<path fill="#9D9D9D" d="M60.619,33.074h1.276v0.789h0.037c0.338-0.601,0.976-0.963,1.727-0.963c1.026,0,1.677,0.463,1.677,1.827
			v5.08h-1.352v-4.616c0-0.877-0.263-1.215-0.938-1.215c-0.55,0-1.076,0.438-1.076,1.314v4.517h-1.351V33.074z"/>
		<path fill="#9D9D9D" d="M69.929,38.98h-0.025c-0.175,0.437-0.513,1.001-1.477,1.001c-1.577,0-2.202-1.314-2.202-3.63
			c0-2.99,1.051-3.453,2.077-3.453c0.726,0,1.276,0.363,1.526,0.963h0.025v-2.99h1.352v8.934h-1.276V38.98z M68.703,33.975
			c-0.776,0-1.051,0.626-1.051,2.44c0,1.526,0.2,2.49,1.139,2.49c0.926,0,1.139-0.952,1.139-2.391
			C69.929,34.9,69.741,33.975,68.703,33.975z"/>
		<path fill="#9D9D9D" d="M75.297,30.872h2.227l1.577,6.618h0.025l1.551-6.618h2.177v8.934h-1.351v-7.433h-0.025l-1.802,7.433
			h-1.201l-1.802-7.433h-0.025v7.433h-1.352V30.872z"/>
		<path fill="#9D9D9D" d="M85.284,37.04v0.225c0,1.089,0.476,1.641,1.464,1.641c0.901,0,1.352-0.639,1.352-1.302
			c0-0.938-0.476-1.352-1.276-1.589l-0.976-0.338c-1.301-0.501-1.864-1.176-1.864-2.453c0-1.626,1.101-2.527,2.778-2.527
			c2.29,0,2.527,1.427,2.527,2.353v0.2h-1.426v-0.188c0-0.813-0.363-1.289-1.251-1.289c-0.613,0-1.201,0.339-1.201,1.289
			c0,0.763,0.388,1.152,1.339,1.514l0.964,0.351c1.264,0.45,1.814,1.139,1.814,2.365c0,1.901-1.151,2.69-2.953,2.69
			c-2.215,0-2.715-1.478-2.715-2.729V37.04H85.284z"/>
		<path fill="#9D9D9D" d="M93.218,30.872h1.426v7.732h3.454v1.201h-4.88V30.872z"/>
		<path fill="#9D9D9D" d="M103.117,38.404c0,0.25,0.149,0.476,0.35,0.476c0.087,0,0.176-0.013,0.225-0.038v0.877
			c-0.163,0.074-0.4,0.162-0.663,0.162c-0.6,0-1.101-0.238-1.139-0.889h-0.025c-0.363,0.664-0.889,0.989-1.677,0.989
			c-1.075,0-1.751-0.602-1.751-1.89c0-1.502,0.651-1.814,1.564-2.115l1.051-0.287c0.488-0.138,0.788-0.275,0.788-0.864
			c0-0.612-0.212-1.001-0.926-1.001c-0.901,0-1.026,0.639-1.026,1.288h-1.277c0-1.425,0.588-2.213,2.365-2.213
			c1.189,0,2.141,0.463,2.141,1.651V38.404z M101.84,36.252c-0.35,0.275-1.101,0.438-1.501,0.626
			c-0.388,0.188-0.551,0.588-0.551,1.088c0,0.563,0.275,1.015,0.838,1.015c0.814,0,1.214-0.614,1.214-1.603V36.252z"/>
		<path fill="#9D9D9D" d="M103.881,33.074h1.401l0.938,5.306h0.024l1.001-5.306h1.526l1.001,5.306h0.025l0.926-5.306h1.352
			l-1.54,6.732h-1.514l-1.051-5.23h-0.025l-0.963,5.23h-1.577L103.881,33.074z"/>
		<path fill="#9D9D9D" d="M115.707,30.872h2.54c2.802,0,3.153,1.827,3.153,4.467c0,2.641-0.351,4.467-3.153,4.467h-2.54V30.872z
			 M117.132,38.729h1.176c1.177,0,1.664-0.775,1.664-3.39c0-2.516-0.425-3.391-1.664-3.391h-1.176V38.729z"/>
		<path fill="#9D9D9D" d="M123.59,36.615v0.388c0,0.9,0.113,2.052,1.125,2.052c0.964,0,1.076-1.102,1.076-1.502h1.277
			c0,1.489-0.901,2.429-2.365,2.429c-1.101,0-2.465-0.325-2.465-3.441c0-1.764,0.375-3.641,2.49-3.641
			c1.876,0,2.377,1.125,2.377,3.002v0.714H123.59z M125.755,35.689v-0.363c0-0.851-0.275-1.502-1.039-1.502
			c-0.863,0-1.125,0.852-1.125,1.728v0.138H125.755z"/>
		<path fill="#9D9D9D" d="M129.422,40.381c0,0.413,0.375,0.802,0.976,0.802c0.701,0,1.139-0.489,1.139-1.265v-1.089h-0.025
			c-0.25,0.588-0.876,0.927-1.526,0.927c-1.577,0-2.015-1.552-2.015-3.391c0-1.478,0.225-3.466,2.139-3.466
			c0.789,0,1.352,0.513,1.477,1.001h0.025v-0.827h1.276v6.407c0,1.64-0.7,2.628-2.515,2.628c-2.002,0-2.228-1.177-2.228-1.728
			H129.422z M130.373,38.68c1.051,0,1.164-1.327,1.164-2.391c0-1.1-0.138-2.314-1.076-2.314c-0.976,0-1.139,1.001-1.139,2.253
			C129.322,37.378,129.372,38.68,130.373,38.68z"/>
		<path fill="#9D9D9D" d="M134.015,33.074h1.351v1.051h0.024c0.301-0.751,0.801-1.226,1.564-1.226c0.15,0,0.238,0.025,0.326,0.049
			v1.377c-0.1-0.025-0.337-0.075-0.563-0.075c-0.613,0-1.351,0.274-1.351,1.527v4.028h-1.351V33.074z"/>
		<path fill="#9D9D9D" d="M138.895,36.615v0.388c0,0.9,0.113,2.052,1.126,2.052c0.963,0,1.076-1.102,1.076-1.502h1.277
			c0,1.489-0.901,2.429-2.366,2.429c-1.101,0-2.464-0.325-2.464-3.441c0-1.764,0.375-3.641,2.49-3.641
			c1.877,0,2.377,1.125,2.377,3.002v0.714H138.895z M141.06,35.689v-0.363c0-0.851-0.275-1.502-1.039-1.502
			c-0.863,0-1.126,0.852-1.126,1.728v0.138H141.06z"/>
		<path fill="#9D9D9D" d="M144.539,36.615v0.388c0,0.9,0.112,2.052,1.125,2.052c0.964,0,1.076-1.102,1.076-1.502h1.277
			c0,1.489-0.901,2.429-2.365,2.429c-1.101,0-2.465-0.325-2.465-3.441c0-1.764,0.375-3.641,2.49-3.641
			c1.877,0,2.377,1.125,2.377,3.002v0.714H144.539z M146.703,35.689v-0.363c0-0.851-0.275-1.502-1.039-1.502
			c-0.863,0-1.125,0.852-1.125,1.728v0.138H146.703z"/>
		<path fill="#9D9D9D" d="M151.922,35.038v-0.174c0-0.539-0.188-1.04-0.888-1.04c-0.539,0-0.963,0.251-0.963,0.876
			c0,0.525,0.237,0.738,0.951,0.989l0.863,0.3c1.002,0.338,1.464,0.876,1.464,1.939c0,1.438-1.051,2.053-2.414,2.053
			c-1.702,0-2.215-0.789-2.215-2.09v-0.251h1.201v0.213c0,0.776,0.275,1.201,1.051,1.201c0.738,0,1.101-0.375,1.101-0.988
			c0-0.5-0.262-0.825-0.738-0.989l-1.101-0.387c-1.014-0.351-1.44-0.863-1.44-1.939c0-1.264,0.914-1.852,2.303-1.852
			c1.714,0,2.102,1.001,2.102,1.838v0.301H151.922z"/>
		<path fill="#9D9D9D" d="M156.402,35.589h6.257v1.201h-6.257V35.589z"/>
		<path fill="#9D9D9D" d="M167.327,30.872h1.827l2.353,8.934h-1.489l-0.551-2.189h-2.615l-0.575,2.189h-1.49L167.327,30.872z
			 M169.229,36.478l-1.026-4.404h-0.025l-1.064,4.404H169.229z"/>
		<path fill="#9D9D9D" d="M171.896,33.074h1.275v0.789h0.038c0.338-0.601,0.976-0.963,1.727-0.963c1.026,0,1.676,0.463,1.676,1.827
			v5.08h-1.352v-4.616c0-0.877-0.262-1.215-0.938-1.215c-0.55,0-1.076,0.438-1.076,1.314v4.517h-1.351V33.074z"/>
		<path fill="#9D9D9D" d="M178.665,33.074l1.164,5.055h0.025l1.076-5.055h1.413l-1.852,6.982c-0.525,1.84-0.963,2.077-2.353,2.053
			c-0.174,0-0.362-0.025-0.538-0.051v-1.076c0.15,0.025,0.288,0.051,0.438,0.051c0.463,0,0.764-0.101,0.914-0.526l0.175-0.55
			l-1.915-6.882H178.665z"/>
		<path fill="#9D9D9D" d="M182.344,33.074h0.926V31.16h1.351v1.914h1.101v1.001h-1.101v4.017c0,0.525,0.15,0.713,0.613,0.713
			c0.2,0,0.364-0.013,0.488-0.037v1.001c-0.288,0.075-0.663,0.112-1.088,0.112c-0.914,0-1.364-0.251-1.364-1.627v-4.179h-0.926
			V33.074z"/>
		<path fill="#9D9D9D" d="M186.337,30.771h1.352v1.352h-1.352V30.771z M186.337,33.074h1.352v6.732h-1.352V33.074z"/>
		<path fill="#9D9D9D" d="M188.965,33.074h1.276v0.789h0.038c0.338-0.601,0.976-0.963,1.614-0.963c0.964,0,1.363,0.463,1.564,1.025
			c0.388-0.65,0.889-1.025,1.702-1.025c0.951,0,1.639,0.487,1.639,1.789v5.118h-1.351v-4.616c0-0.877-0.263-1.215-0.814-1.215
			c-0.55,0-1.076,0.438-1.076,1.314v4.517h-1.351v-4.616c0-0.877-0.263-1.215-0.827-1.215c-0.538,0-1.063,0.438-1.063,1.314v4.517
			h-1.352V33.074z"/>
		<path fill="#9D9D9D" d="M199.177,36.615v0.388c0,0.9,0.112,2.052,1.125,2.052c0.964,0,1.076-1.102,1.076-1.502h1.276
			c0,1.489-0.9,2.429-2.365,2.429c-1.101,0-2.464-0.325-2.464-3.441c0-1.764,0.375-3.641,2.49-3.641
			c1.877,0,2.377,1.125,2.377,3.002v0.714H199.177z M201.341,35.689v-0.363c0-0.851-0.275-1.502-1.039-1.502
			c-0.863,0-1.125,0.852-1.125,1.728v0.138H201.341z"/>
		<path fill="#9D9D9D" d="M203.332,38.154h1.426v1.651c0,0.988-0.325,1.714-1.426,1.928v-0.727c0.388-0.1,0.625-0.463,0.625-1.013
			v-0.188h-0.625V38.154z"/>
		<path fill="#9D9D9D" d="M209.75,30.872h1.827l2.353,8.934h-1.489l-0.551-2.189h-2.614l-0.576,2.189h-1.49L209.75,30.872z
			 M211.653,36.478l-1.026-4.404h-0.025l-1.064,4.404H211.653z"/>
		<path fill="#9D9D9D" d="M214.319,33.074h1.276v0.789h0.037c0.338-0.601,0.976-0.963,1.728-0.963c1.025,0,1.676,0.463,1.676,1.827
			v5.08h-1.352v-4.616c0-0.877-0.263-1.215-0.938-1.215c-0.549,0-1.076,0.438-1.076,1.314v4.517h-1.351V33.074z"/>
		<path fill="#9D9D9D" d="M221.089,33.074l1.163,5.055h0.025l1.076-5.055h1.413l-1.852,6.982c-0.525,1.84-0.963,2.077-2.353,2.053
			c-0.175,0-0.362-0.025-0.537-0.051v-1.076c0.149,0.025,0.288,0.051,0.438,0.051c0.462,0,0.763-0.101,0.913-0.526l0.175-0.55
			l-1.914-6.882H221.089z"/>
		<path fill="#9D9D9D" d="M224.906,33.074h1.402l0.938,5.306h0.025l1.001-5.306h1.526l1.001,5.306h0.025l0.926-5.306h1.352
			l-1.539,6.732h-1.515l-1.051-5.23h-0.025l-0.964,5.23h-1.576L224.906,33.074z"/>
		<path fill="#9D9D9D" d="M233.792,30.872h1.351V33.8l0.038,0.024c0.375-0.575,0.964-0.925,1.651-0.925
			c1.026,0,1.677,0.463,1.677,1.827v5.08h-1.352v-4.616c0-0.877-0.263-1.215-0.938-1.215c-0.55,0-1.076,0.438-1.076,1.314v4.517
			h-1.351V30.872z"/>
		<path fill="#9D9D9D" d="M240.825,36.615v0.388c0,0.9,0.112,2.052,1.125,2.052c0.964,0,1.076-1.102,1.076-1.502h1.277
			c0,1.489-0.901,2.429-2.365,2.429c-1.101,0-2.465-0.325-2.465-3.441c0-1.764,0.375-3.641,2.49-3.641
			c1.876,0,2.377,1.125,2.377,3.002v0.714H240.825z M242.99,35.689v-0.363c0-0.851-0.276-1.502-1.04-1.502
			c-0.863,0-1.125,0.852-1.125,1.728v0.138H242.99z"/>
		<path fill="#9D9D9D" d="M245.305,33.074h1.352v1.051h0.024c0.3-0.751,0.801-1.226,1.564-1.226c0.15,0,0.238,0.025,0.325,0.049
			v1.377c-0.101-0.025-0.338-0.075-0.563-0.075c-0.613,0-1.351,0.274-1.351,1.527v4.028h-1.352V33.074z"/>
		<path fill="#9D9D9D" d="M250.185,36.615v0.388c0,0.9,0.112,2.052,1.126,2.052c0.963,0,1.076-1.102,1.076-1.502h1.276
			c0,1.489-0.901,2.429-2.365,2.429c-1.102,0-2.465-0.325-2.465-3.441c0-1.764,0.375-3.641,2.49-3.641
			c1.877,0,2.377,1.125,2.377,3.002v0.714H250.185z M252.349,35.689v-0.363c0-0.851-0.275-1.502-1.038-1.502
			c-0.863,0-1.126,0.852-1.126,1.728v0.138H252.349z"/>
	</g>
	<g>
		<rect x="0.677" fill="#AA0000" width="23.118" height="22.951"/>
		<polygon fill="none" stroke="#FFFFFF" stroke-width="0.7143" points="3.685,7.457 20.426,7.424 12.055,1.476 		"/>
		<path fill="none" stroke="#FFFFFF" stroke-width="0.7143" d="M9.818,20.879c0.669,0,1.211-0.542,1.211-1.211V9.646
			c0-0.669-0.542-1.212-1.211-1.212l0,0c-0.669,0-1.211,0.543-1.211,1.212v10.022C8.607,20.337,9.149,20.879,9.818,20.879
			L9.818,20.879z"/>
		<path fill="none" stroke="#FFFFFF" stroke-width="0.7143" d="M13.97,20.865c0.67,0,1.212-0.543,1.212-1.212V9.63
			c0-0.668-0.542-1.211-1.212-1.211l0,0c-0.669,0-1.212,0.543-1.212,1.211v10.023C12.758,20.322,13.301,20.865,13.97,20.865
			L13.97,20.865z"/>
		<path fill="none" stroke="#FFFFFF" stroke-width="0.7143" d="M17.73,8.481c-0.669,0-1.046,0.542-1.046,1.212v10.021
			c0,0.669,0.377,1.213,1.046,1.213"/>
		<path fill="none" stroke="#FFFFFF" stroke-width="0.7143" d="M5.982,20.949c0.669,0,1.046-0.541,1.046-1.21V9.715
			c0-0.67-0.376-1.212-1.046-1.212"/>
		<rect x="1.345" y="0.75" fill="none" stroke="#FFFFFF" stroke-width="0.6945" width="21.783" height="21.532"/>
	</g>
</g>
</svg>
