<?xml version="1.0" encoding="utf-8"?>
<!-- Generator: Adobe Illustrator 16.0.0, SVG Export Plug-In . SVG Version: 6.00 Build 0)  -->
<!DOCTYPE svg PUBLIC "-//W3C//DTD SVG 1.1//EN" "http://www.w3.org/Graphics/SVG/1.1/DTD/svg11.dtd">
<svg version="1.1" id="Layer_1" xmlns="http://www.w3.org/2000/svg" xmlns:xlink="http://www.w3.org/1999/xlink" x="0px" y="0px"
	 width="288.69px" height="33.882px" viewBox="0 0 288.69 33.882" enable-background="new 0 0 288.69 33.882" xml:space="preserve">
<g>
	<path fill="#FFFFFF" d="M49.466,19.041v2.485c0,2.03,0.84,2.555,1.715,2.555c1.12,0,1.785-0.699,1.785-3.29h5.671
		c-0.07,4.585-2.206,7.142-7.421,7.142c-6.091,0-8.051-2.73-8.051-9.942c0-7.246,2.38-9.976,8.051-9.976
		c5.041,0,7.596,2.24,7.596,9.101v1.925H49.466z M52.932,14.771c0-1.995-0.42-2.905-1.75-2.905c-1.295,0-1.715,0.91-1.715,2.905
		v0.84h3.466V14.771z"/>
	<path fill="#FFFFFF" d="M59.615,2.449h9.451c7.526,0,7.911,5.951,7.911,12.497c0,6.545-0.385,12.497-7.911,12.497h-9.451V2.449z
		 M66.126,22.751h1.295c2.52,0,2.835-1.05,2.835-7.805c0-6.756-0.315-7.806-2.835-7.806h-1.295V22.751z"/>
	<path fill="#FFFFFF" d="M83.941,19.041v2.485c0,2.03,0.84,2.555,1.715,2.555c1.12,0,1.785-0.699,1.785-3.29h5.671
		c-0.07,4.585-2.206,7.142-7.421,7.142c-6.091,0-8.051-2.73-8.051-9.942c0-7.246,2.38-9.976,8.051-9.976
		c5.041,0,7.596,2.24,7.596,9.101v1.925H83.941z M87.406,14.771c0-1.995-0.42-2.905-1.75-2.905c-1.295,0-1.715,0.91-1.715,2.905
		v0.84h3.465V14.771z"/>
	<path fill="#FFFFFF" d="M103.506,8.505h5.881v18.622c0,5.181-3.465,6.755-7.911,6.755c-4.06,0-7.246-1.014-7.351-5.32h5.67
		c0,0.945,0.595,1.471,1.575,1.471c0.945,0,1.925-0.245,1.925-2.346v-3.605h-0.07c-0.805,2.171-2.521,2.836-4.271,2.836
		c-2.521,0-5.531-1.471-5.531-9.346c0-7.316,2.17-9.556,5.846-9.556c1.75,0,3.465,0.84,4.166,3.116h0.07V8.505z M101.546,22.227
		c1.155,0,1.75-0.771,1.75-4.761c0-3.956-0.595-4.76-1.75-4.76c-1.19,0-1.82,0.805-1.82,4.76
		C99.726,21.456,100.355,22.227,101.546,22.227z"/>
	<path fill="#FFFFFF" d="M110.609,8.505h6.091v3.01h0.07c0.7-2.275,2.38-3.5,4.235-3.5h1.015v5.881
		c-0.56-0.105-1.05-0.14-1.575-0.14c-2.24,0-3.536,0.875-3.536,3.36v10.327h-6.301V8.505z"/>
	<path fill="#FFFFFF" d="M127.62,19.041v2.485c0,2.03,0.84,2.555,1.715,2.555c1.12,0,1.785-0.699,1.785-3.29h5.671
		c-0.07,4.585-2.206,7.142-7.421,7.142c-6.091,0-8.051-2.73-8.051-9.942c0-7.246,2.38-9.976,8.051-9.976
		c5.041,0,7.596,2.24,7.596,9.101v1.925H127.62z M131.085,14.771c0-1.995-0.42-2.905-1.75-2.905c-1.295,0-1.715,0.91-1.715,2.905
		v0.84h3.466V14.771z"/>
	<path fill="#FFFFFF" d="M143.229,19.041v2.485c0,2.03,0.84,2.555,1.715,2.555c1.12,0,1.785-0.699,1.785-3.29h5.671
		c-0.07,4.585-2.206,7.142-7.421,7.142c-6.091,0-8.051-2.73-8.051-9.942c0-7.246,2.38-9.976,8.051-9.976
		c5.041,0,7.596,2.24,7.596,9.101v1.925H143.229z M146.695,14.771c0-1.995-0.42-2.905-1.75-2.905c-1.295,0-1.715,0.91-1.715,2.905
		v0.84h3.466V14.771z"/>
	<path fill="#FFFFFF" d="M157.963,21.562c0,0.734,0.14,1.436,0.455,1.855s0.77,0.664,1.33,0.664c0.98,0,1.82-0.595,1.82-1.609
		c0-3.361-9.136-1.365-9.136-8.541c0-3.326,2.415-5.916,7.525-5.916c4.726,0,7.106,1.996,7.106,5.951h-5.46
		c0-1.61-0.63-2.1-1.68-2.1c-0.945,0-1.61,0.56-1.61,1.47c0,3.115,9.136,1.015,9.136,8.261c0,3.675-2.835,6.336-7.596,6.336
		c-5.285,0-7.42-2.24-7.42-6.371H157.963z"/>
	<path fill="#FFFFFF" d="M168.429,20.511h5.88v6.932h-5.88V20.511z"/>
	<path fill="#FFFFFF" d="M176.059,8.505h6.3v20.162c0,4.41-2.555,4.936-5.845,4.936c-0.91,0-1.926-0.07-2.836-0.175v-4.235
		c1.575,0,2.381-0.211,2.381-1.33V8.505z M176.059,2.449h6.3v4.69h-6.3V2.449z"/>
	<path fill="#FFFFFF" d="M192.964,14.946c0-1.575-0.42-2.24-1.54-2.24s-1.54,0.665-1.54,2.24v12.497h-6.301V8.505h6.091v2.31h0.07
		c0.805-1.855,2.415-2.8,4.585-2.8c2.591,0,3.851,0.98,4.621,2.906c0.979-2.135,2.835-2.906,4.76-2.906
		c2.766,0,4.936,1.085,4.936,5.146v14.282h-6.301V14.946c0-1.575-0.42-2.24-1.54-2.24s-1.54,0.665-1.54,2.24v12.497h-6.301V14.946z"
		/>
	<path fill="#FFFFFF" d="M209.87,2.449h6.301v24.993h-6.301V2.449z"/>
	<path fill="#FFFFFF" d="M222.435,21.562c0,0.734,0.14,1.436,0.455,1.855c0.314,0.42,0.77,0.664,1.33,0.664
		c0.979,0,1.82-0.595,1.82-1.609c0-3.361-9.137-1.365-9.137-8.541c0-3.326,2.416-5.916,7.526-5.916c4.726,0,7.105,1.996,7.105,5.951
		h-5.461c0-1.61-0.63-2.1-1.68-2.1c-0.945,0-1.61,0.56-1.61,1.47c0,3.115,9.136,1.015,9.136,8.261c0,3.675-2.835,6.336-7.596,6.336
		c-5.285,0-7.421-2.24-7.421-6.371H222.435z"/>
	<path fill="#FFFFFF" d="M232.9,20.511h5.881v6.932H232.9V20.511z"/>
	<path fill="#FFFFFF" d="M246.165,19.041v2.485c0,2.03,0.84,2.555,1.715,2.555c1.12,0,1.785-0.699,1.785-3.29h5.671
		c-0.07,4.585-2.205,7.142-7.421,7.142c-6.091,0-8.051-2.73-8.051-9.942c0-7.246,2.38-9.976,8.051-9.976
		c5.04,0,7.596,2.24,7.596,9.101v1.925H246.165z M249.629,14.771c0-1.995-0.42-2.905-1.75-2.905c-1.295,0-1.715,0.91-1.715,2.905
		v0.84h3.465V14.771z"/>
	<path fill="#FFFFFF" d="M265.31,2.449h6.301v24.993h-6.091v-2.591h-0.07c-0.77,2.101-2.064,3.081-4.305,3.081
		c-4.236,0-5.671-3.361-5.671-10.362c0-7.141,2.311-9.556,5.811-9.556c1.785,0,3.325,0.7,3.955,2.625h0.07V2.449z M263.56,23.241
		c1.435,0,1.75-1.189,1.75-5.25c0-4.095-0.315-5.285-1.75-5.285c-1.471,0-1.785,1.19-1.785,5.285
		C261.775,22.052,262.089,23.241,263.56,23.241z"/>
	<path fill="#FFFFFF" d="M273.008,8.505h6.301v12.496c0,1.575,0.42,2.24,1.54,2.24s1.54-0.665,1.54-2.24V8.505h6.301v18.938h-6.09
		v-2.311h-0.07c-0.806,1.855-2.415,2.801-4.586,2.801c-2.765,0-4.936-1.086-4.936-5.146V8.505z"/>
</g>
<g>
	<rect fill="#AA0000" width="32.672" height="32.438"/>
	<polygon fill="none" stroke="#FFFFFF" stroke-width="1.0096" points="4.25,10.539 27.911,10.492 16.08,2.085 	"/>
	<path fill="none" stroke="#FFFFFF" stroke-width="1.0096" d="M12.919,29.509c0.946,0,1.711-0.766,1.711-1.711V13.632
		c0-0.946-0.766-1.713-1.711-1.713l0,0c-0.945,0-1.712,0.767-1.712,1.713v14.166C11.207,28.743,11.974,29.509,12.919,29.509
		L12.919,29.509z"/>
	<path fill="none" stroke="#FFFFFF" stroke-width="1.0096" d="M18.788,29.489c0.946,0,1.712-0.768,1.712-1.714V13.61
		c0-0.945-0.766-1.712-1.712-1.712l0,0c-0.946,0-1.714,0.767-1.714,1.712v14.166C17.074,28.722,17.841,29.489,18.788,29.489
		L18.788,29.489z"/>
	<path fill="none" stroke="#FFFFFF" stroke-width="1.0096" d="M24.1,11.986c-0.945,0-1.478,0.766-1.478,1.713v14.163
		c0,0.947,0.533,1.715,1.478,1.715"/>
	<path fill="none" stroke="#FFFFFF" stroke-width="1.0096" d="M7.497,29.607c0.947,0,1.479-0.765,1.479-1.71V13.73
		c0-0.947-0.532-1.713-1.479-1.713"/>
	<rect x="0.943" y="1.061" fill="none" stroke="#FFFFFF" stroke-width="0.9816" width="30.787" height="30.431"/>
</g>
</svg>
