<?xml version="1.0" encoding="utf-8"?>
<!-- Generator: Adobe Illustrator 16.0.0, SVG Export Plug-In . SVG Version: 6.00 Build 0)  -->
<!DOCTYPE svg PUBLIC "-//W3C//DTD SVG 1.1//EN" "http://www.w3.org/Graphics/SVG/1.1/DTD/svg11.dtd">
<svg version="1.1" id="Layer_1" xmlns="http://www.w3.org/2000/svg" xmlns:xlink="http://www.w3.org/1999/xlink" x="0px" y="0px"
	 width="385.175px" height="63.933px" viewBox="0 0 385.175 63.933" enable-background="new 0 0 385.175 63.933"
	 xml:space="preserve">
<g>
	<g>
		<path fill="#AA0000" d="M52.868,21.164v2.839c0,2.319,0.96,2.919,1.96,2.919c1.28,0,2.04-0.8,2.04-3.759h6.479
			c-0.08,5.239-2.52,8.159-8.479,8.159c-6.959,0-9.199-3.12-9.199-11.358c0-8.278,2.72-11.398,9.199-11.398
			c5.759,0,8.678,2.56,8.678,10.398v2.2H52.868z M56.827,16.284c0-2.28-0.48-3.319-2-3.319c-1.48,0-1.96,1.04-1.96,3.319v0.96h3.959
			V16.284z"/>
		<path d="M64.909,2.207h10.798c8.598,0,9.038,6.799,9.038,14.277c0,7.479-0.44,14.278-9.038,14.278H64.909V2.207z M72.347,25.403
			h1.48c2.879,0,3.239-1.2,3.239-8.919c0-7.718-0.36-8.918-3.239-8.918h-1.48V25.403z"/>
		<path d="M93.147,21.164v2.839c0,2.319,0.96,2.919,1.96,2.919c1.28,0,2.04-0.8,2.04-3.759h6.479
			c-0.08,5.239-2.52,8.159-8.479,8.159c-6.959,0-9.199-3.12-9.199-11.358c0-8.278,2.72-11.398,9.199-11.398
			c5.759,0,8.678,2.56,8.678,10.398v2.2H93.147z M97.106,16.284c0-2.28-0.48-3.319-2-3.319c-1.48,0-1.96,1.04-1.96,3.319v0.96h3.959
			V16.284z"/>
		<path d="M115.946,9.125h6.719v21.276c0,5.919-3.959,7.718-9.039,7.718c-4.639,0-8.278-1.16-8.398-6.079h6.479
			c0,1.08,0.68,1.68,1.799,1.68c1.08,0,2.2-0.28,2.2-2.68v-4.119h-0.08c-0.919,2.479-2.879,3.239-4.879,3.239
			c-2.879,0-6.319-1.68-6.319-10.678c0-8.358,2.479-10.918,6.679-10.918c2,0,3.959,0.96,4.759,3.56h0.08V9.125z M113.707,24.803
			c1.32,0,2-0.88,2-5.439c0-4.52-0.68-5.439-2-5.439c-1.36,0-2.08,0.92-2.08,5.439C111.627,23.923,112.347,24.803,113.707,24.803z"
			/>
		<path d="M124.508,9.125h6.959v3.439h0.08c0.8-2.6,2.719-4,4.839-4h1.16v6.719c-0.64-0.12-1.2-0.16-1.8-0.16
			c-2.56,0-4.04,1-4.04,3.839v11.798h-7.199V9.125z"/>
		<path d="M144.386,21.164v2.839c0,2.319,0.96,2.919,1.96,2.919c1.28,0,2.04-0.8,2.04-3.759h6.479
			c-0.08,5.239-2.52,8.159-8.479,8.159c-6.959,0-9.199-3.12-9.199-11.358c0-8.278,2.72-11.398,9.199-11.398
			c5.759,0,8.678,2.56,8.678,10.398v2.2H144.386z M148.346,16.284c0-2.28-0.48-3.319-2-3.319c-1.48,0-1.96,1.04-1.96,3.319v0.96
			h3.959V16.284z"/>
		<path d="M162.666,21.164v2.839c0,2.319,0.96,2.919,1.96,2.919c1.28,0,2.04-0.8,2.04-3.759h6.479
			c-0.08,5.239-2.52,8.159-8.479,8.159c-6.959,0-9.199-3.12-9.199-11.358c0-8.278,2.72-11.398,9.199-11.398
			c5.759,0,8.678,2.56,8.678,10.398v2.2H162.666z M166.625,16.284c0-2.28-0.48-3.319-2-3.319c-1.48,0-1.96,1.04-1.96,3.319v0.96
			h3.959V16.284z"/>
		<path d="M179.945,24.043c0,0.84,0.16,1.64,0.52,2.12c0.36,0.48,0.88,0.76,1.52,0.76c1.12,0,2.079-0.68,2.079-1.84
			c0-3.839-10.438-1.56-10.438-9.758c0-3.799,2.76-6.759,8.599-6.759c5.398,0,8.118,2.28,8.118,6.799h-6.239
			c0-1.84-0.72-2.399-1.919-2.399c-1.08,0-1.839,0.64-1.839,1.68c0,3.559,10.438,1.16,10.438,9.438c0,4.199-3.24,7.239-8.679,7.239
			c-6.039,0-8.479-2.56-8.479-7.279H179.945z"/>
		<path d="M192.346,22.843h6.719v7.918h-6.719V22.843z"/>
		<path d="M201.505,9.125h7.199v23.036c0,5.039-2.92,5.638-6.679,5.638c-1.04,0-2.2-0.079-3.24-0.199v-4.839
			c1.8,0,2.72-0.24,2.72-1.52V9.125z M201.505,2.207h7.199v5.359h-7.199V2.207z"/>
		<path d="M221.264,16.484c0-1.799-0.479-2.56-1.76-2.56c-1.279,0-1.76,0.76-1.76,2.56v14.278h-7.198V9.125h6.958v2.64h0.08
			c0.92-2.12,2.76-3.2,5.239-3.2c2.96,0,4.399,1.12,5.279,3.319c1.12-2.439,3.239-3.319,5.439-3.319c3.159,0,5.639,1.24,5.639,5.879
			v16.317h-7.199V16.484c0-1.799-0.479-2.56-1.76-2.56c-1.279,0-1.759,0.76-1.759,2.56v14.278h-7.199V16.484z"/>
		<path d="M241.026,2.207h7.199v28.555h-7.199V2.207z"/>
		<path d="M255.825,24.043c0,0.84,0.16,1.64,0.52,2.12c0.36,0.48,0.88,0.76,1.52,0.76c1.12,0,2.08-0.68,2.08-1.84
			c0-3.839-10.438-1.56-10.438-9.758c0-3.799,2.76-6.759,8.599-6.759c5.399,0,8.119,2.28,8.119,6.799h-6.239
			c0-1.84-0.72-2.399-1.92-2.399c-1.08,0-1.84,0.64-1.84,1.68c0,3.559,10.438,1.16,10.438,9.438c0,4.199-3.239,7.239-8.679,7.239
			c-6.039,0-8.479-2.56-8.479-7.279H255.825z"/>
		<path d="M268.224,22.843h6.719v7.918h-6.719V22.843z"/>
		<path d="M283.823,21.164v2.839c0,2.319,0.96,2.919,1.959,2.919c1.28,0,2.04-0.8,2.04-3.759h6.479
			c-0.08,5.239-2.52,8.159-8.479,8.159c-6.959,0-9.198-3.12-9.198-11.358c0-8.278,2.72-11.398,9.198-11.398
			c5.76,0,8.679,2.56,8.679,10.398v2.2H283.823z M287.782,16.284c0-2.28-0.479-3.319-2-3.319c-1.479,0-1.959,1.04-1.959,3.319v0.96
			h3.959V16.284z"/>
		<path d="M306.141,2.207h7.198v28.555h-6.958v-2.959h-0.08c-0.88,2.399-2.36,3.52-4.92,3.52c-4.839,0-6.479-3.839-6.479-11.838
			c0-8.158,2.64-10.918,6.639-10.918c2.04,0,3.8,0.8,4.52,3h0.08V2.207z M304.141,25.962c1.64,0,2-1.36,2-5.999
			c0-4.679-0.36-6.039-2-6.039c-1.68,0-2.039,1.36-2.039,6.039C302.102,24.603,302.461,25.962,304.141,25.962z"/>
		<path d="M315.382,9.125h7.199v14.277c0,1.8,0.479,2.56,1.76,2.56c1.279,0,1.76-0.76,1.76-2.56V9.125h7.198v21.636h-6.959v-2.64
			h-0.079c-0.92,2.12-2.76,3.2-5.239,3.2c-3.16,0-5.64-1.24-5.64-5.879V9.125z"/>
	</g>
	<g>
		<path fill="#9D9D9D" d="M0,53.651c0-4.844,1.368-7.047,4.483-7.047s4.483,2.203,4.483,7.047c0,4.846-1.368,7.049-4.483,7.049
			S0,58.497,0,53.651z M6.801,53.595c0-4.559-1.026-5.357-2.318-5.357s-2.318,0.799-2.318,5.357c0,4.674,1.026,5.472,2.318,5.472
			S6.801,58.269,6.801,53.595z"/>
		<path fill="#9D9D9D" d="M10.526,50.214h1.938v1.197h0.057c0.513-0.912,1.482-1.463,2.622-1.463c1.558,0,2.546,0.702,2.546,2.773
			v7.713h-2.052v-7.01c0-1.33-0.399-1.844-1.425-1.844c-0.836,0-1.634,0.665-1.634,1.995v6.858h-2.052V50.214z"/>
		<path fill="#9D9D9D" d="M19.532,46.87h2.052v13.564h-2.052V46.87z"/>
		<path fill="#9D9D9D" d="M23.521,46.718h2.052v2.053h-2.052V46.718z M23.521,50.214h2.052v10.221h-2.052V50.214z"/>
		<path fill="#9D9D9D" d="M27.416,50.214h1.938v1.197h0.057c0.513-0.912,1.482-1.463,2.622-1.463c1.558,0,2.546,0.702,2.546,2.773
			v7.713h-2.052v-7.01c0-1.33-0.399-1.844-1.425-1.844c-0.836,0-1.634,0.665-1.634,1.995v6.858h-2.052V50.214z"/>
		<path fill="#9D9D9D" d="M38.093,55.59v0.589c0,1.367,0.171,3.115,1.71,3.115c1.463,0,1.634-1.672,1.634-2.279h1.938
			c0,2.261-1.368,3.686-3.59,3.686c-1.672,0-3.742-0.494-3.742-5.225c0-2.678,0.57-5.527,3.78-5.527c2.85,0,3.609,1.709,3.609,4.559
			v1.083H38.093z M41.38,54.185v-0.551c0-1.293-0.418-2.28-1.577-2.28c-1.311,0-1.71,1.292-1.71,2.622v0.209H41.38z"/>
		<path fill="#9D9D9D" d="M49.113,46.87h2.166v11.74h5.243v1.824h-7.409V46.87z"/>
		<path fill="#9D9D9D" d="M57.321,46.87h2.166v11.74h5.243v1.824h-7.409V46.87z"/>
		<path fill="#9D9D9D" d="M65.775,46.87h3.382l2.394,10.049h0.038l2.355-10.049h3.306v13.564h-2.052V49.149H75.16l-2.735,11.285
			h-1.824l-2.736-11.285h-0.038v11.285h-2.052V46.87z"/>
		<path fill="#9D9D9D" d="M90.17,58.307c0,0.38,0.228,0.722,0.532,0.722c0.133,0,0.266-0.02,0.342-0.057v1.33
			c-0.247,0.113-0.608,0.246-1.007,0.246c-0.912,0-1.672-0.361-1.729-1.349H88.27c-0.551,1.007-1.349,1.501-2.545,1.501
			c-1.634,0-2.66-0.912-2.66-2.869c0-2.279,0.988-2.754,2.375-3.21l1.596-0.437c0.741-0.209,1.197-0.418,1.197-1.312
			c0-0.931-0.323-1.52-1.406-1.52c-1.368,0-1.558,0.969-1.558,1.956h-1.938c0-2.165,0.893-3.361,3.59-3.361
			c1.805,0,3.249,0.702,3.249,2.507V58.307z M88.232,55.039c-0.532,0.418-1.672,0.665-2.28,0.95
			c-0.589,0.285-0.836,0.893-0.836,1.652c0,0.855,0.418,1.539,1.273,1.539c1.235,0,1.843-0.932,1.843-2.432V55.039z"/>
		<path fill="#9D9D9D" d="M92.033,50.214h1.938v1.197h0.057c0.513-0.912,1.482-1.463,2.622-1.463c1.558,0,2.546,0.702,2.546,2.773
			v7.713h-2.052v-7.01c0-1.33-0.399-1.844-1.425-1.844c-0.836,0-1.634,0.665-1.634,1.995v6.858h-2.052V50.214z"/>
		<path fill="#9D9D9D" d="M106.167,59.181h-0.038c-0.266,0.664-0.779,1.52-2.242,1.52c-2.394,0-3.344-1.994-3.344-5.51
			c0-4.54,1.596-5.242,3.154-5.242c1.102,0,1.938,0.551,2.317,1.463h0.038V46.87h2.052v13.564h-1.938V59.181z M104.306,51.581
			c-1.178,0-1.596,0.95-1.596,3.705c0,2.317,0.304,3.78,1.729,3.78c1.406,0,1.729-1.444,1.729-3.628
			C106.167,52.987,105.883,51.581,104.306,51.581z"/>
		<path fill="#9D9D9D" d="M114.318,46.87h3.382l2.394,10.049h0.038l2.355-10.049h3.306v13.564h-2.052V49.149h-0.038l-2.735,11.285
			h-1.824l-2.736-11.285h-0.038v11.285h-2.052V46.87z"/>
		<path fill="#9D9D9D" d="M129.48,56.235v0.342c0,1.653,0.722,2.489,2.223,2.489c1.368,0,2.052-0.969,2.052-1.976
			c0-1.425-0.722-2.052-1.938-2.413l-1.482-0.513c-1.976-0.76-2.831-1.785-2.831-3.724c0-2.47,1.672-3.837,4.217-3.837
			c3.477,0,3.837,2.166,3.837,3.571v0.304h-2.166v-0.285c0-1.234-0.551-1.957-1.9-1.957c-0.931,0-1.824,0.514-1.824,1.957
			c0,1.159,0.589,1.748,2.033,2.299l1.463,0.532c1.919,0.684,2.754,1.729,2.754,3.591c0,2.887-1.748,4.084-4.483,4.084
			c-3.363,0-4.123-2.242-4.123-4.142v-0.323H129.48z"/>
		<path fill="#9D9D9D" d="M141.527,46.87h2.165v11.74h5.244v1.824h-7.409V46.87z"/>
		<path fill="#9D9D9D" d="M156.554,58.307c0,0.38,0.228,0.722,0.531,0.722c0.133,0,0.267-0.02,0.342-0.057v1.33
			c-0.247,0.113-0.607,0.246-1.007,0.246c-0.911,0-1.672-0.361-1.729-1.349h-0.038c-0.551,1.007-1.349,1.501-2.546,1.501
			c-1.633,0-2.659-0.912-2.659-2.869c0-2.279,0.988-2.754,2.375-3.21l1.596-0.437c0.74-0.209,1.196-0.418,1.196-1.312
			c0-0.931-0.322-1.52-1.405-1.52c-1.368,0-1.558,0.969-1.558,1.956h-1.938c0-2.165,0.894-3.361,3.591-3.361
			c1.805,0,3.249,0.702,3.249,2.507V58.307z M154.616,55.039c-0.531,0.418-1.672,0.665-2.279,0.95
			c-0.589,0.285-0.836,0.893-0.836,1.652c0,0.855,0.418,1.539,1.272,1.539c1.235,0,1.843-0.932,1.843-2.432V55.039z"/>
		<path fill="#9D9D9D" d="M157.714,50.214h2.128l1.425,8.055h0.037l1.521-8.055h2.317l1.52,8.055h0.038l1.406-8.055h2.052
			l-2.337,10.221h-2.299l-1.596-7.941h-0.038l-1.463,7.941h-2.394L157.714,50.214z"/>
		<path fill="#9D9D9D" d="M175.668,46.87h3.856c4.255,0,4.787,2.773,4.787,6.781c0,4.01-0.532,6.783-4.787,6.783h-3.856V46.87z
			 M177.833,58.8h1.786c1.786,0,2.526-1.178,2.526-5.148c0-3.818-0.646-5.147-2.526-5.147h-1.786V58.8z"/>
		<path fill="#9D9D9D" d="M187.638,55.59v0.589c0,1.367,0.171,3.115,1.709,3.115c1.463,0,1.634-1.672,1.634-2.279h1.938
			c0,2.261-1.368,3.686-3.591,3.686c-1.672,0-3.742-0.494-3.742-5.225c0-2.678,0.569-5.527,3.78-5.527
			c2.85,0,3.609,1.709,3.609,4.559v1.083H187.638z M190.924,54.185v-0.551c0-1.293-0.418-2.28-1.577-2.28
			c-1.311,0-1.709,1.292-1.709,2.622v0.209H190.924z"/>
		<path fill="#9D9D9D" d="M196.493,61.308c0,0.627,0.569,1.217,1.481,1.217c1.063,0,1.729-0.742,1.729-1.92v-1.652h-0.038
			c-0.38,0.893-1.33,1.406-2.317,1.406c-2.394,0-3.059-2.355-3.059-5.148c0-2.242,0.342-5.262,3.248-5.262
			c1.197,0,2.052,0.778,2.242,1.52h0.038v-1.254h1.938v9.727c0,2.488-1.063,3.989-3.818,3.989c-3.04,0-3.382-1.786-3.382-2.622
			H196.493z M197.936,58.724c1.596,0,1.767-2.014,1.767-3.628c0-1.671-0.209-3.515-1.634-3.515c-1.481,0-1.729,1.52-1.729,3.42
			C196.34,56.749,196.417,58.724,197.936,58.724z"/>
		<path fill="#9D9D9D" d="M203.465,50.214h2.051v1.596h0.038c0.456-1.141,1.216-1.861,2.375-1.861c0.228,0,0.361,0.037,0.494,0.075
			v2.09c-0.152-0.038-0.513-0.114-0.855-0.114c-0.931,0-2.052,0.418-2.052,2.318v6.117h-2.051V50.214z"/>
		<path fill="#9D9D9D" d="M210.875,55.59v0.589c0,1.367,0.171,3.115,1.709,3.115c1.463,0,1.634-1.672,1.634-2.279h1.938
			c0,2.261-1.368,3.686-3.591,3.686c-1.672,0-3.742-0.494-3.742-5.225c0-2.678,0.569-5.527,3.78-5.527
			c2.85,0,3.609,1.709,3.609,4.559v1.083H210.875z M214.161,54.185v-0.551c0-1.293-0.418-2.28-1.577-2.28
			c-1.311,0-1.709,1.292-1.709,2.622v0.209H214.161z"/>
		<path fill="#9D9D9D" d="M219.443,55.59v0.589c0,1.367,0.171,3.115,1.709,3.115c1.463,0,1.634-1.672,1.634-2.279h1.938
			c0,2.261-1.368,3.686-3.591,3.686c-1.672,0-3.742-0.494-3.742-5.225c0-2.678,0.569-5.527,3.78-5.527
			c2.85,0,3.609,1.709,3.609,4.559v1.083H219.443z M222.729,54.185v-0.551c0-1.293-0.418-2.28-1.577-2.28
			c-1.311,0-1.709,1.292-1.709,2.622v0.209H222.729z"/>
		<path fill="#9D9D9D" d="M230.653,53.196v-0.266c0-0.817-0.285-1.577-1.349-1.577c-0.817,0-1.463,0.38-1.463,1.329
			c0,0.799,0.36,1.121,1.443,1.502l1.311,0.455c1.521,0.514,2.223,1.33,2.223,2.945c0,2.184-1.596,3.115-3.666,3.115
			c-2.584,0-3.362-1.197-3.362-3.173v-0.38h1.823v0.323c0,1.178,0.418,1.823,1.596,1.823c1.121,0,1.672-0.57,1.672-1.5
			c0-0.76-0.398-1.254-1.121-1.502l-1.671-0.588c-1.539-0.532-2.186-1.311-2.186-2.945c0-1.918,1.387-2.811,3.496-2.811
			c2.603,0,3.191,1.52,3.191,2.792v0.456H230.653z"/>
		<path fill="#9D9D9D" d="M237.455,54.032h9.499v1.824h-9.499V54.032z"/>
		<path fill="#9D9D9D" d="M254.041,46.87h2.773l3.571,13.564h-2.261l-0.836-3.325h-3.97l-0.874,3.325h-2.261L254.041,46.87z
			 M256.928,55.381l-1.558-6.687h-0.038l-1.615,6.687H256.928z"/>
		<path fill="#9D9D9D" d="M260.976,50.214h1.938v1.197h0.057c0.513-0.912,1.481-1.463,2.622-1.463c1.558,0,2.545,0.702,2.545,2.773
			v7.713h-2.052v-7.01c0-1.33-0.398-1.844-1.425-1.844c-0.835,0-1.633,0.665-1.633,1.995v6.858h-2.052V50.214z"/>
		<path fill="#9D9D9D" d="M271.254,50.214l1.767,7.675h0.038l1.634-7.675h2.146l-2.812,10.6c-0.798,2.793-1.463,3.154-3.571,3.116
			c-0.266,0-0.551-0.038-0.816-0.076V62.22c0.228,0.038,0.437,0.076,0.665,0.076c0.702,0,1.158-0.152,1.387-0.798l0.266-0.836
			l-2.906-10.448H271.254z"/>
		<path fill="#9D9D9D" d="M276.84,50.214h1.405v-2.906h2.052v2.906h1.672v1.52h-1.672v6.098c0,0.799,0.229,1.083,0.931,1.083
			c0.305,0,0.552-0.019,0.741-0.057v1.52c-0.437,0.114-1.007,0.171-1.652,0.171c-1.387,0-2.071-0.38-2.071-2.469v-6.346h-1.405
			V50.214z"/>
		<path fill="#9D9D9D" d="M282.902,46.718h2.052v2.053h-2.052V46.718z M282.902,50.214h2.052v10.221h-2.052V50.214z"/>
		<path fill="#9D9D9D" d="M286.892,50.214h1.938v1.197h0.057c0.514-0.912,1.482-1.463,2.451-1.463c1.463,0,2.07,0.702,2.374,1.557
			c0.59-0.987,1.35-1.557,2.584-1.557c1.444,0,2.488,0.74,2.488,2.716v7.771h-2.051v-7.01c0-1.33-0.399-1.844-1.235-1.844
			s-1.634,0.665-1.634,1.995v6.858h-2.052v-7.01c0-1.33-0.398-1.844-1.254-1.844c-0.816,0-1.614,0.665-1.614,1.995v6.858h-2.052
			V50.214z"/>
		<path fill="#9D9D9D" d="M302.395,55.59v0.589c0,1.367,0.171,3.115,1.709,3.115c1.463,0,1.634-1.672,1.634-2.279h1.938
			c0,2.261-1.368,3.686-3.591,3.686c-1.672,0-3.742-0.494-3.742-5.225c0-2.678,0.569-5.527,3.78-5.527
			c2.85,0,3.609,1.709,3.609,4.559v1.083H302.395z M305.681,54.185v-0.551c0-1.293-0.418-2.28-1.577-2.28
			c-1.311,0-1.709,1.292-1.709,2.622v0.209H305.681z"/>
		<path fill="#9D9D9D" d="M308.705,57.927h2.165v2.508c0,1.5-0.494,2.602-2.165,2.926v-1.103c0.589-0.151,0.949-0.703,0.949-1.538
			v-0.285h-0.949V57.927z"/>
		<path fill="#9D9D9D" d="M318.45,46.87h2.773l3.571,13.564h-2.261l-0.836-3.325h-3.97l-0.874,3.325h-2.261L318.45,46.87z
			 M321.337,55.381l-1.558-6.687h-0.038l-1.615,6.687H321.337z"/>
		<path fill="#9D9D9D" d="M325.385,50.214h1.938v1.197h0.057c0.513-0.912,1.481-1.463,2.622-1.463c1.558,0,2.545,0.702,2.545,2.773
			v7.713h-2.052v-7.01c0-1.33-0.398-1.844-1.425-1.844c-0.835,0-1.634,0.665-1.634,1.995v6.858h-2.051V50.214z"/>
		<path fill="#9D9D9D" d="M335.664,50.214l1.767,7.675h0.038l1.634-7.675h2.146l-2.812,10.6c-0.798,2.793-1.463,3.154-3.571,3.116
			c-0.266,0-0.551-0.038-0.816-0.076V62.22c0.228,0.038,0.437,0.076,0.665,0.076c0.702,0,1.158-0.152,1.387-0.798l0.266-0.836
			l-2.906-10.448H335.664z"/>
		<path fill="#9D9D9D" d="M341.458,50.214h2.128l1.425,8.055h0.037l1.521-8.055h2.317l1.52,8.055h0.038l1.406-8.055h2.052
			l-2.337,10.221h-2.299l-1.596-7.941h-0.038l-1.463,7.941h-2.394L341.458,50.214z"/>
		<path fill="#9D9D9D" d="M354.95,46.87H357v4.445l0.058,0.038c0.569-0.874,1.463-1.405,2.508-1.405
			c1.558,0,2.545,0.702,2.545,2.773v7.713h-2.052v-7.01c0-1.33-0.398-1.844-1.425-1.844c-0.835,0-1.634,0.665-1.634,1.995v6.858
			h-2.051V46.87z"/>
		<path fill="#9D9D9D" d="M365.626,55.59v0.589c0,1.367,0.171,3.115,1.709,3.115c1.463,0,1.634-1.672,1.634-2.279h1.938
			c0,2.261-1.368,3.686-3.591,3.686c-1.672,0-3.742-0.494-3.742-5.225c0-2.678,0.569-5.527,3.78-5.527
			c2.85,0,3.609,1.709,3.609,4.559v1.083H365.626z M368.913,54.185v-0.551c0-1.293-0.418-2.28-1.577-2.28
			c-1.311,0-1.709,1.292-1.709,2.622v0.209H368.913z"/>
		<path fill="#9D9D9D" d="M372.429,50.214h2.052v1.596h0.037c0.456-1.141,1.216-1.861,2.375-1.861c0.228,0,0.361,0.037,0.494,0.075
			v2.09c-0.152-0.038-0.513-0.114-0.855-0.114c-0.931,0-2.051,0.418-2.051,2.318v6.117h-2.052V50.214z"/>
		<path fill="#9D9D9D" d="M379.837,55.59v0.589c0,1.367,0.171,3.115,1.709,3.115c1.463,0,1.634-1.672,1.634-2.279h1.938
			c0,2.261-1.368,3.686-3.591,3.686c-1.672,0-3.742-0.494-3.742-5.225c0-2.678,0.569-5.527,3.78-5.527
			c2.85,0,3.609,1.709,3.609,4.559v1.083H379.837z M383.124,54.185v-0.551c0-1.293-0.418-2.28-1.577-2.28
			c-1.311,0-1.709,1.292-1.709,2.622v0.209H383.124z"/>
	</g>
	<g>
		<rect x="1.028" fill="#AA0000" width="35.098" height="34.846"/>
		<polygon fill="none" stroke="#FFFFFF" stroke-width="1.0845" points="5.594,11.321 31.011,11.271 18.302,2.24 		"/>
		<path fill="none" stroke="#FFFFFF" stroke-width="1.0845" d="M14.907,31.699c1.016,0,1.838-0.822,1.838-1.839V14.644
			c0-1.016-0.822-1.84-1.838-1.84l0,0c-1.016,0-1.839,0.824-1.839,1.84V29.86C13.067,30.877,13.891,31.699,14.907,31.699
			L14.907,31.699z"/>
		<path fill="none" stroke="#FFFFFF" stroke-width="1.0845" d="M21.21,31.678c1.017,0,1.84-0.824,1.84-1.84V14.62
			c0-1.015-0.823-1.839-1.84-1.839l0,0c-1.016,0-1.84,0.824-1.84,1.839v15.218C19.37,30.854,20.194,31.678,21.21,31.678
			L21.21,31.678z"/>
		<path fill="none" stroke="#FFFFFF" stroke-width="1.0845" d="M26.918,12.876c-1.016,0-1.589,0.823-1.589,1.84v15.215
			c0,1.017,0.573,1.842,1.589,1.842"/>
		<path fill="none" stroke="#FFFFFF" stroke-width="1.0845" d="M9.082,31.805c1.017,0,1.589-0.821,1.589-1.837V14.75
			c0-1.018-0.572-1.841-1.589-1.841"/>
		<rect x="2.042" y="1.14" fill="none" stroke="#FFFFFF" stroke-width="1.0544" width="33.072" height="32.69"/>
	</g>
</g>
</svg>
