<?xml version="1.0" encoding="utf-8"?>
<!-- Generator: Adobe Illustrator 16.0.0, SVG Export Plug-In . SVG Version: 6.00 Build 0)  -->
<!DOCTYPE svg PUBLIC "-//W3C//DTD SVG 1.1//EN" "http://www.w3.org/Graphics/SVG/1.1/DTD/svg11.dtd">
<svg version="1.1" id="Layer_1" xmlns="http://www.w3.org/2000/svg" xmlns:xlink="http://www.w3.org/1999/xlink" x="0px" y="0px"
	 width="191.205px" height="22.441px" viewBox="0 0 191.205 22.441" enable-background="new 0 0 191.205 22.441"
	 xml:space="preserve">
<g>
	<path fill="#FFFFFF" d="M32.762,12.611v1.646c0,1.344,0.556,1.692,1.136,1.692c0.742,0,1.182-0.463,1.182-2.18h3.756
		c-0.046,3.037-1.461,4.73-4.915,4.73c-4.034,0-5.333-1.808-5.333-6.584c0-4.799,1.576-6.607,5.333-6.607
		c3.339,0,5.031,1.483,5.031,6.028v1.274H32.762z M35.058,9.783c0-1.321-0.278-1.924-1.159-1.924c-0.857,0-1.136,0.603-1.136,1.924
		v0.556h2.295L35.058,9.783L35.058,9.783z"/>
	<path fill="#FFFFFF" d="M39.485,1.622h6.259c4.985,0,5.24,3.941,5.24,8.277s-0.254,8.277-5.24,8.277h-6.259V1.622z M43.797,15.068
		h0.858c1.668,0,1.878-0.695,1.878-5.169c0-4.475-0.209-5.17-1.878-5.17h-0.858V15.068z"/>
	<path fill="#FFFFFF" d="M55.596,12.611v1.646c0,1.344,0.557,1.692,1.136,1.692c0.741,0,1.182-0.463,1.182-2.18h3.756
		c-0.046,3.037-1.46,4.73-4.915,4.73c-4.034,0-5.332-1.808-5.332-6.584c0-4.799,1.576-6.607,5.332-6.607
		c3.339,0,5.032,1.483,5.032,6.028v1.274H55.596z M57.891,9.783c0-1.321-0.279-1.924-1.16-1.924c-0.858,0-1.136,0.603-1.136,1.924
		v0.556h2.295V9.783z"/>
	<path fill="#FFFFFF" d="M68.554,5.633h3.895v12.333c0,3.432-2.294,4.475-5.24,4.475c-2.688,0-4.799-0.671-4.868-3.523h3.755
		c0,0.626,0.394,0.974,1.043,0.974c0.625,0,1.275-0.162,1.275-1.554V15.95h-0.046c-0.533,1.438-1.669,1.878-2.828,1.878
		c-1.67,0-3.664-0.974-3.664-6.189c0-4.845,1.437-6.329,3.872-6.329c1.159,0,2.295,0.556,2.759,2.064h0.046L68.554,5.633
		L68.554,5.633z M67.256,14.721c0.765,0,1.159-0.51,1.159-3.153c0-2.621-0.394-3.153-1.159-3.153c-0.789,0-1.206,0.533-1.206,3.153
		C66.051,14.211,66.467,14.721,67.256,14.721z"/>
	<path fill="#FFFFFF" d="M73.259,5.633h4.035v1.994h0.046c0.464-1.507,1.576-2.318,2.805-2.318h0.672v3.895
		c-0.371-0.07-0.695-0.093-1.043-0.093c-1.483,0-2.341,0.58-2.341,2.226v6.84h-4.174L73.259,5.633L73.259,5.633z"/>
	<path fill="#FFFFFF" d="M84.525,12.611v1.646c0,1.344,0.557,1.692,1.136,1.692c0.742,0,1.183-0.463,1.183-2.18h3.756
		c-0.046,3.037-1.461,4.73-4.915,4.73c-4.035,0-5.333-1.808-5.333-6.584c0-4.799,1.577-6.607,5.333-6.607
		c3.339,0,5.031,1.483,5.031,6.028v1.274H84.525z M86.821,9.783c0-1.321-0.278-1.924-1.16-1.924c-0.857,0-1.136,0.603-1.136,1.924
		v0.556h2.296L86.821,9.783L86.821,9.783z"/>
	<path fill="#FFFFFF" d="M94.864,12.611v1.646c0,1.344,0.556,1.692,1.136,1.692c0.742,0,1.182-0.463,1.182-2.18h3.756
		c-0.046,3.037-1.461,4.73-4.915,4.73c-4.034,0-5.332-1.808-5.332-6.584c0-4.799,1.576-6.607,5.332-6.607
		c3.339,0,5.032,1.483,5.032,6.028v1.274H94.864z M97.159,9.783c0-1.321-0.278-1.924-1.16-1.924c-0.857,0-1.136,0.603-1.136,1.924
		v0.556h2.296L97.159,9.783L97.159,9.783z"/>
	<path fill="#FFFFFF" d="M104.622,14.281c0,0.487,0.092,0.951,0.301,1.229c0.208,0.276,0.51,0.439,0.881,0.439
		c0.648,0,1.205-0.395,1.205-1.066c0-2.227-6.051-0.904-6.051-5.657c0-2.203,1.599-3.918,4.984-3.918
		c3.129,0,4.706,1.322,4.706,3.941h-3.617c0-1.066-0.417-1.391-1.112-1.391c-0.626,0-1.066,0.371-1.066,0.973
		c0,2.063,6.051,0.672,6.051,5.472c0,2.433-1.878,4.196-5.031,4.196c-3.5,0-4.915-1.483-4.915-4.22H104.622z"/>
	<path fill="#FFFFFF" d="M111.553,13.585h3.895v4.591h-3.895V13.585z"/>
	<path fill="#FFFFFF" d="M116.608,5.633h4.172v13.354c0,2.92-1.691,3.269-3.871,3.269c-0.603,0-1.275-0.047-1.878-0.116v-2.806
		c1.043,0,1.577-0.139,1.577-0.88V5.633z M116.608,1.622h4.172v3.106h-4.172V1.622z"/>
	<path fill="#FFFFFF" d="M127.804,9.899c0-1.043-0.278-1.483-1.021-1.483c-0.741,0-1.019,0.44-1.019,1.483v8.277h-4.174V5.633h4.035
		v1.53h0.046c0.533-1.229,1.599-1.854,3.037-1.854c1.716,0,2.55,0.649,3.061,1.924c0.647-1.414,1.877-1.924,3.152-1.924
		c1.832,0,3.269,0.719,3.269,3.408v9.459h-4.174V9.899c0-1.043-0.278-1.483-1.02-1.483c-0.742,0-1.02,0.44-1.02,1.483v8.277h-4.173
		V9.899L127.804,9.899z"/>
	<path fill="#FFFFFF" d="M139.002,1.622h4.173v16.553h-4.173V1.622z"/>
	<path fill="#FFFFFF" d="M147.323,14.281c0,0.487,0.094,0.951,0.302,1.229c0.209,0.277,0.511,0.439,0.881,0.439
		c0.649,0,1.205-0.395,1.205-1.066c0-2.227-6.052-0.904-6.052-5.657c0-2.203,1.601-3.918,4.985-3.918
		c3.13,0,4.706,1.322,4.706,3.941h-3.617c0-1.066-0.417-1.391-1.113-1.391c-0.625,0-1.065,0.371-1.065,0.973
		c0,2.063,6.051,0.672,6.051,5.472c0,2.433-1.878,4.196-5.03,4.196c-3.501,0-4.916-1.483-4.916-4.22H147.323z"/>
	<path fill="#FFFFFF" d="M154.254,13.585h3.895v4.591h-3.895V13.585z"/>
	<path fill="#FFFFFF" d="M163.04,12.611v1.646c0,1.344,0.557,1.692,1.136,1.692c0.742,0,1.182-0.463,1.182-2.18h3.757
		c-0.047,3.037-1.461,4.73-4.915,4.73c-4.034,0-5.333-1.808-5.333-6.584c0-4.799,1.577-6.607,5.333-6.607
		c3.338,0,5.03,1.483,5.03,6.028v1.274H163.04z M165.334,9.783c0-1.321-0.278-1.924-1.159-1.924c-0.857,0-1.136,0.603-1.136,1.924
		v0.556h2.295V9.783z"/>
	<path fill="#FFFFFF" d="M175.72,1.622h4.173v16.553h-4.034v-1.716h-0.046c-0.51,1.393-1.367,2.041-2.852,2.041
		c-2.805,0-3.756-2.227-3.756-6.864c0-4.729,1.531-6.329,3.849-6.329c1.183,0,2.202,0.463,2.619,1.739h0.047V1.622L175.72,1.622z
		 M174.561,15.394c0.951,0,1.159-0.789,1.159-3.478c0-2.712-0.208-3.5-1.159-3.5c-0.974,0-1.182,0.788-1.182,3.5
		C173.379,14.605,173.587,15.394,174.561,15.394z"/>
	<path fill="#FFFFFF" d="M180.819,5.633h4.173v8.276c0,1.042,0.278,1.484,1.021,1.484s1.02-0.442,1.02-1.484V5.633h4.174v12.543
		h-4.034v-1.53h-0.046c-0.534,1.228-1.599,1.854-3.037,1.854c-1.832,0-3.27-0.719-3.27-3.409V5.633z"/>
</g>
<g>
	<rect x="0" fill="#AA0000" width="21.639" height="21.485"/>
	<polygon fill="none" stroke="#FFFFFF" stroke-width="0.6687" points="2.815,6.98 18.487,6.949 10.65,1.381 	"/>
	<path fill="none" stroke="#FFFFFF" stroke-width="0.6687" d="M8.557,19.544c0.627,0,1.133-0.507,1.133-1.133V9.028
		c0-0.626-0.507-1.134-1.133-1.134l0,0c-0.626,0-1.134,0.508-1.134,1.134v9.383C7.423,19.038,7.931,19.544,8.557,19.544
		L8.557,19.544z"/>
	<path fill="none" stroke="#FFFFFF" stroke-width="0.6687" d="M12.444,19.532c0.626,0,1.134-0.509,1.134-1.137V9.014
		c0-0.626-0.508-1.134-1.134-1.134l0,0c-0.627,0-1.135,0.508-1.135,1.134v9.382C11.309,19.024,11.817,19.532,12.444,19.532
		L12.444,19.532z"/>
	<path fill="none" stroke="#FFFFFF" stroke-width="0.6687" d="M15.962,7.938c-0.626,0-0.979,0.507-0.979,1.135v9.38
		c0,0.627,0.353,1.137,0.979,1.137"/>
	<path fill="none" stroke="#FFFFFF" stroke-width="0.6687" d="M4.966,19.609c0.627,0,0.979-0.507,0.979-1.133V9.094
		c0-0.627-0.353-1.134-0.979-1.134"/>
	<rect x="0.624" y="0.703" fill="none" stroke="#FFFFFF" stroke-width="0.6501" width="20.391" height="20.155"/>
</g>
</svg>
