<?xml version="1.0" encoding="utf-8"?>
<!-- Generator: Adobe Illustrator 16.0.0, SVG Export Plug-In . SVG Version: 6.00 Build 0)  -->
<!DOCTYPE svg PUBLIC "-//W3C//DTD SVG 1.1//EN" "http://www.w3.org/Graphics/SVG/1.1/DTD/svg11.dtd">
<svg version="1.1" id="Layer_1" xmlns="http://www.w3.org/2000/svg" xmlns:xlink="http://www.w3.org/1999/xlink" x="0px" y="0px"
	 width="330.368px" height="54.835px" viewBox="0 0 330.368 54.835" enable-background="new 0 0 330.368 54.835"
	 xml:space="preserve">
<g>
	<g>
		<path fill="#AA0000" d="M45.345,18.152v2.435c0,1.989,0.823,2.504,1.681,2.504c1.098,0,1.75-0.686,1.75-3.224h5.557
			c-0.069,4.494-2.161,6.998-7.272,6.998c-5.969,0-7.89-2.675-7.89-9.742c0-7.1,2.333-9.776,7.89-9.776
			c4.939,0,7.443,2.195,7.443,8.919v1.887H45.345z M48.741,13.967c0-1.955-0.412-2.847-1.715-2.847
			c-1.269,0-1.681,0.892-1.681,2.847v0.824h3.396V13.967z"/>
		<path d="M55.673,1.893h9.262c7.375,0,7.752,5.832,7.752,12.246c0,6.415-0.377,12.247-7.752,12.247h-9.262V1.893z M62.053,21.788
			h1.27c2.469,0,2.778-1.029,2.778-7.65c0-6.62-0.309-7.649-2.778-7.649h-1.27V21.788z"/>
		<path d="M79.893,18.152v2.435c0,1.989,0.823,2.504,1.681,2.504c1.098,0,1.75-0.686,1.75-3.224h5.557
			c-0.069,4.494-2.161,6.998-7.272,6.998c-5.969,0-7.89-2.675-7.89-9.742c0-7.1,2.333-9.776,7.89-9.776
			c4.939,0,7.443,2.195,7.443,8.919v1.887H79.893z M83.289,13.967c0-1.955-0.412-2.847-1.715-2.847
			c-1.269,0-1.681,0.892-1.681,2.847v0.824h3.396V13.967z"/>
		<path d="M99.448,7.827h5.763v18.249c0,5.077-3.396,6.62-7.752,6.62c-3.979,0-7.101-0.995-7.204-5.213h5.557
			c0,0.926,0.583,1.441,1.543,1.441c0.927,0,1.887-0.24,1.887-2.299v-3.533h-0.068c-0.789,2.127-2.47,2.778-4.185,2.778
			c-2.47,0-5.42-1.44-5.42-9.159c0-7.169,2.127-9.364,5.729-9.364c1.715,0,3.396,0.823,4.082,3.053h0.068V7.827z M97.527,21.273
			c1.132,0,1.715-0.755,1.715-4.665c0-3.876-0.583-4.666-1.715-4.666c-1.166,0-1.784,0.789-1.784,4.666
			C95.743,20.519,96.361,21.273,97.527,21.273z"/>
		<path d="M106.792,7.827h5.969v2.95h0.068c0.686-2.229,2.333-3.43,4.15-3.43h0.995v5.763c-0.549-0.103-1.029-0.137-1.544-0.137
			c-2.195,0-3.464,0.857-3.464,3.293v10.119h-6.174V7.827z"/>
		<path d="M123.841,18.152v2.435c0,1.989,0.823,2.504,1.681,2.504c1.098,0,1.75-0.686,1.75-3.224h5.557
			c-0.069,4.494-2.161,6.998-7.272,6.998c-5.969,0-7.89-2.675-7.89-9.742c0-7.1,2.333-9.776,7.89-9.776
			c4.939,0,7.443,2.195,7.443,8.919v1.887H123.841z M127.237,13.967c0-1.955-0.412-2.847-1.715-2.847
			c-1.269,0-1.681,0.892-1.681,2.847v0.824h3.396V13.967z"/>
		<path d="M139.52,18.152v2.435c0,1.989,0.823,2.504,1.681,2.504c1.098,0,1.75-0.686,1.75-3.224h5.557
			c-0.069,4.494-2.161,6.998-7.272,6.998c-5.969,0-7.89-2.675-7.89-9.742c0-7.1,2.333-9.776,7.89-9.776
			c4.939,0,7.443,2.195,7.443,8.919v1.887H139.52z M142.916,13.967c0-1.955-0.412-2.847-1.715-2.847
			c-1.269,0-1.681,0.892-1.681,2.847v0.824h3.396V13.967z"/>
		<path d="M154.34,20.622c0,0.72,0.137,1.406,0.446,1.818c0.309,0.412,0.754,0.651,1.304,0.651c0.96,0,1.783-0.583,1.783-1.578
			c0-3.293-8.953-1.338-8.953-8.37c0-3.259,2.367-5.797,7.375-5.797c4.63,0,6.963,1.955,6.963,5.832h-5.352
			c0-1.578-0.617-2.058-1.646-2.058c-0.926,0-1.578,0.548-1.578,1.44c0,3.053,8.953,0.995,8.953,8.096
			c0,3.602-2.779,6.208-7.444,6.208c-5.18,0-7.272-2.195-7.272-6.243H154.34z"/>
		<path d="M164.977,19.593h5.763v6.792h-5.763V19.593z"/>
		<path d="M172.833,7.827h6.175v19.758c0,4.321-2.504,4.836-5.729,4.836c-0.892,0-1.887-0.068-2.779-0.171V28.1
			c1.543,0,2.333-0.206,2.333-1.303V7.827z M172.833,1.893h6.175v4.596h-6.175V1.893z"/>
		<path d="M189.78,14.138c0-1.543-0.411-2.195-1.509-2.195c-1.097,0-1.509,0.652-1.509,2.195v12.247h-6.174V7.827h5.968v2.264h0.068
			c0.789-1.818,2.367-2.744,4.494-2.744c2.539,0,3.773,0.96,4.528,2.847c0.961-2.092,2.778-2.847,4.666-2.847
			c2.71,0,4.836,1.063,4.836,5.042v13.996h-6.175V14.138c0-1.543-0.411-2.195-1.509-2.195c-1.098,0-1.509,0.652-1.509,2.195v12.247
			h-6.175V14.138z"/>
		<path d="M206.729,1.893h6.175v24.492h-6.175V1.893z"/>
		<path d="M219.422,20.622c0,0.72,0.138,1.406,0.446,1.818s0.754,0.651,1.303,0.651c0.961,0,1.784-0.583,1.784-1.578
			c0-3.293-8.953-1.338-8.953-8.37c0-3.259,2.367-5.797,7.375-5.797c4.632,0,6.964,1.955,6.964,5.832h-5.352
			c0-1.578-0.617-2.058-1.646-2.058c-0.927,0-1.578,0.548-1.578,1.44c0,3.053,8.953,0.995,8.953,8.096
			c0,3.602-2.778,6.208-7.443,6.208c-5.18,0-7.272-2.195-7.272-6.243H219.422z"/>
		<path d="M230.058,19.593h5.763v6.792h-5.763V19.593z"/>
		<path d="M243.437,18.152v2.435c0,1.989,0.823,2.504,1.68,2.504c1.099,0,1.75-0.686,1.75-3.224h5.557
			c-0.068,4.494-2.161,6.998-7.271,6.998c-5.969,0-7.89-2.675-7.89-9.742c0-7.1,2.333-9.776,7.89-9.776
			c4.939,0,7.443,2.195,7.443,8.919v1.887H243.437z M246.833,13.967c0-1.955-0.411-2.847-1.716-2.847
			c-1.269,0-1.68,0.892-1.68,2.847v0.824h3.396V13.967z"/>
		<path d="M262.58,1.893h6.174v24.492h-5.968v-2.539h-0.068c-0.755,2.058-2.025,3.019-4.221,3.019
			c-4.149,0-5.557-3.293-5.557-10.154c0-6.997,2.265-9.364,5.694-9.364c1.75,0,3.259,0.686,3.877,2.573h0.068V1.893z
			 M260.864,22.268c1.406,0,1.716-1.167,1.716-5.146c0-4.013-0.31-5.18-1.716-5.18c-1.44,0-1.749,1.167-1.749,5.18
			C259.115,21.102,259.423,22.268,260.864,22.268z"/>
		<path d="M270.505,7.827h6.175v12.246c0,1.544,0.411,2.195,1.51,2.195c1.098,0,1.51-0.651,1.51-2.195V7.827h6.174v18.558h-5.969
			v-2.264h-0.068c-0.789,1.818-2.367,2.744-4.493,2.744c-2.711,0-4.838-1.063-4.838-5.042V7.827z"/>
	</g>
	<g>
		<path fill="#9D9D9D" d="M0,46.018c0-4.155,1.173-6.045,3.845-6.045c2.673,0,3.846,1.89,3.846,6.045s-1.173,6.046-3.846,6.046
			C1.173,52.063,0,50.173,0,46.018z M5.833,45.969c0-3.91-0.88-4.596-1.988-4.596c-1.108,0-1.988,0.686-1.988,4.596
			c0,4.009,0.88,4.693,1.988,4.693C4.954,50.662,5.833,49.978,5.833,45.969z"/>
		<path fill="#9D9D9D" d="M9.028,43.068h1.662v1.027h0.048c0.44-0.782,1.271-1.255,2.249-1.255c1.336,0,2.184,0.603,2.184,2.379
			v6.615h-1.76v-6.012c0-1.142-0.342-1.582-1.222-1.582c-0.717,0-1.401,0.57-1.401,1.712v5.882h-1.76V43.068z"/>
		<path fill="#9D9D9D" d="M16.752,40.201h1.76v11.634h-1.76V40.201z"/>
		<path fill="#9D9D9D" d="M20.174,40.07h1.76v1.761h-1.76V40.07z M20.174,43.068h1.76v8.767h-1.76V43.068z"/>
		<path fill="#9D9D9D" d="M23.515,43.068h1.662v1.027h0.048c0.44-0.782,1.271-1.255,2.249-1.255c1.336,0,2.184,0.603,2.184,2.379
			v6.615h-1.76v-6.012c0-1.142-0.342-1.582-1.222-1.582c-0.717,0-1.401,0.57-1.401,1.712v5.882h-1.76V43.068z"/>
		<path fill="#9D9D9D" d="M32.673,47.68v0.505c0,1.173,0.147,2.672,1.467,2.672c1.254,0,1.401-1.434,1.401-1.955h1.662
			c0,1.939-1.173,3.162-3.08,3.162c-1.434,0-3.209-0.424-3.209-4.481c0-2.297,0.489-4.741,3.242-4.741
			c2.444,0,3.096,1.466,3.096,3.91v0.929H32.673z M35.492,46.475v-0.473c0-1.108-0.358-1.956-1.352-1.956
			c-1.125,0-1.467,1.108-1.467,2.249v0.18H35.492z"/>
		<path fill="#9D9D9D" d="M42.125,40.201h1.857v10.069h4.497v1.564h-6.354V40.201z"/>
		<path fill="#9D9D9D" d="M49.165,40.201h1.857v10.069h4.497v1.564h-6.354V40.201z"/>
		<path fill="#9D9D9D" d="M56.416,40.201h2.901l2.053,8.618h0.033l2.02-8.618h2.835v11.634h-1.76v-9.679h-0.033l-2.346,9.679h-1.564
			l-2.347-9.679h-0.033v9.679h-1.76V40.201z"/>
		<path fill="#9D9D9D" d="M77.339,50.01c0,0.326,0.196,0.619,0.456,0.619c0.114,0,0.229-0.017,0.293-0.049v1.142
			c-0.212,0.097-0.521,0.211-0.863,0.211c-0.782,0-1.434-0.311-1.483-1.157H75.71c-0.473,0.864-1.157,1.288-2.183,1.288
			c-1.401,0-2.281-0.783-2.281-2.461c0-1.955,0.847-2.362,2.037-2.754l1.369-0.374c0.636-0.18,1.027-0.358,1.027-1.125
			c0-0.798-0.277-1.304-1.206-1.304c-1.173,0-1.336,0.831-1.336,1.678h-1.662c0-1.856,0.766-2.883,3.08-2.883
			c1.548,0,2.786,0.603,2.786,2.15V50.01z M75.678,47.207c-0.457,0.358-1.434,0.571-1.956,0.815
			c-0.505,0.244-0.717,0.766-0.717,1.417c0,0.733,0.358,1.32,1.092,1.32c1.059,0,1.581-0.799,1.581-2.086V47.207z"/>
		<path fill="#9D9D9D" d="M78.937,43.068h1.662v1.027h0.049c0.44-0.782,1.271-1.255,2.249-1.255c1.336,0,2.184,0.603,2.184,2.379
			v6.615h-1.76v-6.012c0-1.142-0.342-1.582-1.222-1.582c-0.717,0-1.401,0.57-1.401,1.712v5.882h-1.76V43.068z"/>
		<path fill="#9D9D9D" d="M91.061,50.76h-0.032c-0.228,0.569-0.668,1.304-1.923,1.304c-2.053,0-2.868-1.711-2.868-4.727
			c0-3.894,1.369-4.496,2.705-4.496c0.945,0,1.662,0.473,1.987,1.255h0.033v-3.895h1.76v11.634h-1.662V50.76z M89.464,44.241
			c-1.011,0-1.369,0.815-1.369,3.178c0,1.988,0.261,3.243,1.483,3.243c1.206,0,1.482-1.239,1.482-3.112
			C91.061,45.447,90.816,44.241,89.464,44.241z"/>
		<path fill="#9D9D9D" d="M98.052,40.201h2.9l2.053,8.618h0.033l2.02-8.618h2.835v11.634h-1.76v-9.679h-0.033l-2.346,9.679h-1.564
			l-2.347-9.679h-0.033v9.679h-1.76V40.201z"/>
		<path fill="#9D9D9D" d="M111.056,48.233v0.293c0,1.418,0.619,2.136,1.906,2.136c1.173,0,1.76-0.831,1.76-1.695
			c0-1.222-0.619-1.76-1.662-2.069l-1.271-0.439c-1.694-0.652-2.428-1.531-2.428-3.194c0-2.118,1.434-3.291,3.617-3.291
			c2.982,0,3.292,1.858,3.292,3.063v0.261h-1.857v-0.245c0-1.059-0.472-1.679-1.629-1.679c-0.798,0-1.564,0.441-1.564,1.679
			c0,0.994,0.505,1.5,1.744,1.972l1.255,0.457c1.646,0.586,2.362,1.482,2.362,3.08c0,2.476-1.499,3.503-3.845,3.503
			c-2.884,0-3.536-1.924-3.536-3.553v-0.277H111.056z"/>
		<path fill="#9D9D9D" d="M121.389,40.201h1.857v10.069h4.498v1.564h-6.355V40.201z"/>
		<path fill="#9D9D9D" d="M134.278,50.01c0,0.326,0.195,0.619,0.456,0.619c0.114,0,0.229-0.017,0.293-0.049v1.142
			c-0.212,0.097-0.521,0.211-0.863,0.211c-0.782,0-1.434-0.311-1.483-1.157h-0.032c-0.473,0.864-1.157,1.288-2.184,1.288
			c-1.4,0-2.281-0.783-2.281-2.461c0-1.955,0.848-2.362,2.037-2.754l1.369-0.374c0.635-0.18,1.026-0.358,1.026-1.125
			c0-0.798-0.277-1.304-1.206-1.304c-1.173,0-1.336,0.831-1.336,1.678h-1.663c0-1.856,0.766-2.883,3.08-2.883
			c1.548,0,2.787,0.603,2.787,2.15V50.01z M132.615,47.207c-0.456,0.358-1.434,0.571-1.955,0.815
			c-0.505,0.244-0.717,0.766-0.717,1.417c0,0.733,0.359,1.32,1.092,1.32c1.06,0,1.581-0.799,1.581-2.086V47.207z"/>
		<path fill="#9D9D9D" d="M135.273,43.068h1.825l1.222,6.909h0.032l1.304-6.909h1.988l1.303,6.909h0.033l1.206-6.909h1.76
			l-2.004,8.767h-1.972l-1.369-6.812h-0.033l-1.254,6.812h-2.053L135.273,43.068z"/>
		<path fill="#9D9D9D" d="M150.672,40.201h3.308c3.649,0,4.106,2.379,4.106,5.816c0,3.438-0.457,5.817-4.106,5.817h-3.308V40.201z
			 M152.529,50.433h1.532c1.532,0,2.167-1.01,2.167-4.415c0-3.275-0.554-4.415-2.167-4.415h-1.532V50.433z"/>
		<path fill="#9D9D9D" d="M160.938,47.68v0.505c0,1.173,0.147,2.672,1.466,2.672c1.255,0,1.401-1.434,1.401-1.955h1.663
			c0,1.939-1.173,3.162-3.08,3.162c-1.434,0-3.21-0.424-3.21-4.481c0-2.297,0.488-4.741,3.243-4.741c2.444,0,3.096,1.466,3.096,3.91
			v0.929H160.938z M163.757,46.475v-0.473c0-1.108-0.358-1.956-1.353-1.956c-1.124,0-1.466,1.108-1.466,2.249v0.18H163.757z"/>
		<path fill="#9D9D9D" d="M168.533,52.584c0,0.538,0.488,1.044,1.271,1.044c0.912,0,1.483-0.637,1.483-1.647v-1.417h-0.033
			c-0.326,0.766-1.141,1.206-1.988,1.206c-2.053,0-2.624-2.021-2.624-4.415c0-1.924,0.293-4.514,2.786-4.514
			c1.027,0,1.76,0.668,1.923,1.304h0.033v-1.076h1.662v8.343c0,2.135-0.912,3.422-3.275,3.422c-2.607,0-2.9-1.532-2.9-2.249H168.533
			z M169.771,50.368c1.369,0,1.516-1.728,1.516-3.112c0-1.433-0.18-3.015-1.401-3.015c-1.271,0-1.483,1.304-1.483,2.934
			C168.402,48.674,168.468,50.368,169.771,50.368z"/>
		<path fill="#9D9D9D" d="M174.514,43.068h1.759v1.369h0.032c0.392-0.979,1.043-1.597,2.037-1.597c0.195,0,0.31,0.032,0.424,0.064
			v1.793c-0.13-0.033-0.439-0.099-0.733-0.099c-0.798,0-1.76,0.358-1.76,1.989v5.246h-1.759V43.068z"/>
		<path fill="#9D9D9D" d="M180.869,47.68v0.505c0,1.173,0.146,2.672,1.466,2.672c1.255,0,1.401-1.434,1.401-1.955h1.663
			c0,1.939-1.173,3.162-3.08,3.162c-1.434,0-3.209-0.424-3.209-4.481c0-2.297,0.488-4.741,3.242-4.741
			c2.444,0,3.096,1.466,3.096,3.91v0.929H180.869z M183.687,46.475v-0.473c0-1.108-0.358-1.956-1.353-1.956
			c-1.124,0-1.466,1.108-1.466,2.249v0.18H183.687z"/>
		<path fill="#9D9D9D" d="M188.218,47.68v0.505c0,1.173,0.146,2.672,1.466,2.672c1.255,0,1.401-1.434,1.401-1.955h1.663
			c0,1.939-1.173,3.162-3.08,3.162c-1.434,0-3.209-0.424-3.209-4.481c0-2.297,0.488-4.741,3.242-4.741
			c2.444,0,3.096,1.466,3.096,3.91v0.929H188.218z M191.036,46.475v-0.473c0-1.108-0.358-1.956-1.353-1.956
			c-1.124,0-1.466,1.108-1.466,2.249v0.18H191.036z"/>
		<path fill="#9D9D9D" d="M197.833,45.627v-0.228c0-0.701-0.245-1.354-1.157-1.354c-0.701,0-1.254,0.326-1.254,1.141
			c0,0.685,0.309,0.961,1.238,1.288l1.124,0.391c1.304,0.44,1.906,1.141,1.906,2.525c0,1.873-1.369,2.673-3.144,2.673
			c-2.216,0-2.884-1.027-2.884-2.722v-0.326h1.563v0.277c0,1.011,0.358,1.563,1.369,1.563c0.961,0,1.434-0.488,1.434-1.286
			c0-0.651-0.342-1.075-0.961-1.288l-1.433-0.504c-1.32-0.457-1.875-1.125-1.875-2.526c0-1.646,1.189-2.411,2.999-2.411
			c2.232,0,2.737,1.304,2.737,2.395v0.392H197.833z"/>
		<path fill="#9D9D9D" d="M203.667,46.344h8.147v1.564h-8.147V46.344z"/>
		<path fill="#9D9D9D" d="M217.892,40.201h2.379l3.063,11.634h-1.939l-0.717-2.852h-3.405l-0.749,2.852h-1.939L217.892,40.201z
			 M220.37,47.501l-1.336-5.735H219l-1.386,5.735H220.37z"/>
		<path fill="#9D9D9D" d="M223.841,43.068h1.661v1.027h0.049c0.44-0.782,1.271-1.255,2.249-1.255c1.336,0,2.183,0.603,2.183,2.379
			v6.615h-1.76v-6.012c0-1.142-0.342-1.582-1.222-1.582c-0.716,0-1.4,0.57-1.4,1.712v5.882h-1.76V43.068z"/>
		<path fill="#9D9D9D" d="M232.657,43.068l1.516,6.583h0.032l1.401-6.583h1.841l-2.411,9.092c-0.685,2.396-1.255,2.705-3.063,2.673
			c-0.228,0-0.472-0.033-0.7-0.065v-1.401c0.195,0.033,0.375,0.065,0.57,0.065c0.603,0,0.994-0.131,1.189-0.685l0.229-0.717
			l-2.493-8.962H232.657z"/>
		<path fill="#9D9D9D" d="M237.448,43.068h1.206v-2.492h1.76v2.492h1.434v1.304h-1.434v5.23c0,0.685,0.195,0.929,0.798,0.929
			c0.261,0,0.474-0.017,0.636-0.049v1.304c-0.375,0.098-0.863,0.146-1.417,0.146c-1.189,0-1.776-0.326-1.776-2.118v-5.442h-1.206
			V43.068z"/>
		<path fill="#9D9D9D" d="M242.647,40.07h1.76v1.761h-1.76V40.07z M242.647,43.068h1.76v8.767h-1.76V43.068z"/>
		<path fill="#9D9D9D" d="M246.07,43.068h1.661v1.027h0.049c0.44-0.782,1.271-1.255,2.103-1.255c1.255,0,1.775,0.603,2.036,1.335
			c0.506-0.847,1.157-1.335,2.216-1.335c1.239,0,2.135,0.635,2.135,2.329v6.665h-1.759v-6.012c0-1.142-0.343-1.582-1.06-1.582
			s-1.401,0.57-1.401,1.712v5.882h-1.76v-6.012c0-1.142-0.342-1.582-1.076-1.582c-0.7,0-1.384,0.57-1.384,1.712v5.882h-1.76V43.068z
			"/>
		<path fill="#9D9D9D" d="M259.367,47.68v0.505c0,1.173,0.146,2.672,1.466,2.672c1.255,0,1.401-1.434,1.401-1.955h1.662
			c0,1.939-1.173,3.162-3.08,3.162c-1.434,0-3.209-0.424-3.209-4.481c0-2.297,0.488-4.741,3.242-4.741
			c2.444,0,3.096,1.466,3.096,3.91v0.929H259.367z M262.185,46.475v-0.473c0-1.108-0.358-1.956-1.353-1.956
			c-1.124,0-1.466,1.108-1.466,2.249v0.18H262.185z"/>
		<path fill="#9D9D9D" d="M264.778,49.685h1.857v2.15c0,1.287-0.424,2.231-1.857,2.51v-0.945c0.506-0.13,0.814-0.604,0.814-1.319
			v-0.245h-0.814V49.685z"/>
		<path fill="#9D9D9D" d="M273.136,40.201h2.379l3.063,11.634h-1.939l-0.717-2.852h-3.404l-0.75,2.852h-1.939L273.136,40.201z
			 M275.614,47.501l-1.336-5.735h-0.033l-1.386,5.735H275.614z"/>
		<path fill="#9D9D9D" d="M279.085,43.068h1.662v1.027h0.048c0.44-0.782,1.271-1.255,2.249-1.255c1.336,0,2.183,0.603,2.183,2.379
			v6.615h-1.76v-6.012c0-1.142-0.342-1.582-1.222-1.582c-0.716,0-1.401,0.57-1.401,1.712v5.882h-1.759V43.068z"/>
		<path fill="#9D9D9D" d="M287.901,43.068l1.516,6.583h0.032l1.401-6.583h1.841l-2.411,9.092c-0.685,2.396-1.255,2.705-3.063,2.673
			c-0.228,0-0.472-0.033-0.7-0.065v-1.401c0.195,0.033,0.375,0.065,0.571,0.065c0.602,0,0.993-0.131,1.189-0.685l0.228-0.717
			l-2.493-8.962H287.901z"/>
		<path fill="#9D9D9D" d="M292.872,43.068h1.825l1.222,6.909h0.032l1.304-6.909h1.988l1.303,6.909h0.033l1.206-6.909h1.76
			l-2.005,8.767h-1.972l-1.368-6.812h-0.033l-1.255,6.812h-2.053L292.872,43.068z"/>
		<path fill="#9D9D9D" d="M304.443,40.201h1.759v3.813l0.05,0.032c0.488-0.749,1.255-1.205,2.15-1.205
			c1.337,0,2.184,0.603,2.184,2.379v6.615h-1.76v-6.012c0-1.142-0.342-1.582-1.223-1.582c-0.716,0-1.401,0.57-1.401,1.712v5.882
			h-1.759V40.201z"/>
		<path fill="#9D9D9D" d="M313.6,47.68v0.505c0,1.173,0.147,2.672,1.466,2.672c1.255,0,1.401-1.434,1.401-1.955h1.663
			c0,1.939-1.174,3.162-3.08,3.162c-1.434,0-3.21-0.424-3.21-4.481c0-2.297,0.488-4.741,3.243-4.741c2.443,0,3.096,1.466,3.096,3.91
			v0.929H313.6z M316.419,46.475v-0.473c0-1.108-0.359-1.956-1.354-1.956c-1.124,0-1.466,1.108-1.466,2.249v0.18H316.419z"/>
		<path fill="#9D9D9D" d="M319.435,43.068h1.76v1.369h0.032c0.391-0.979,1.043-1.597,2.037-1.597c0.195,0,0.31,0.032,0.424,0.064
			v1.793c-0.131-0.033-0.44-0.099-0.734-0.099c-0.798,0-1.759,0.358-1.759,1.989v5.246h-1.76V43.068z"/>
		<path fill="#9D9D9D" d="M325.79,47.68v0.505c0,1.173,0.146,2.672,1.466,2.672c1.255,0,1.401-1.434,1.401-1.955h1.662
			c0,1.939-1.173,3.162-3.079,3.162c-1.435,0-3.21-0.424-3.21-4.481c0-2.297,0.488-4.741,3.242-4.741
			c2.444,0,3.096,1.466,3.096,3.91v0.929H325.79z M328.608,46.475v-0.473c0-1.108-0.358-1.956-1.353-1.956
			c-1.124,0-1.466,1.108-1.466,2.249v0.18H328.608z"/>
	</g>
	<g>
		<rect x="0.882" fill="#AA0000" width="30.104" height="29.887"/>
		<polygon fill="none" stroke="#FFFFFF" stroke-width="0.9302" points="4.798,9.71 26.599,9.667 15.698,1.921 		"/>
		<path fill="none" stroke="#FFFFFF" stroke-width="0.9302" d="M12.786,27.188c0.872,0,1.577-0.705,1.577-1.577V12.56
			c0-0.871-0.705-1.578-1.577-1.578l0,0c-0.872,0-1.578,0.707-1.578,1.578v13.051C11.208,26.483,11.914,27.188,12.786,27.188
			L12.786,27.188z"/>
		<path fill="none" stroke="#FFFFFF" stroke-width="0.9302" d="M18.192,27.17c0.873,0,1.579-0.707,1.579-1.578V12.54
			c0-0.871-0.706-1.578-1.579-1.578l0,0c-0.871,0-1.579,0.707-1.579,1.578v13.052C16.613,26.463,17.321,27.17,18.192,27.17
			L18.192,27.17z"/>
		<path fill="none" stroke="#FFFFFF" stroke-width="0.9302" d="M23.088,11.044c-0.872,0-1.363,0.706-1.363,1.578v13.05
			c0,0.872,0.491,1.58,1.363,1.58"/>
		<path fill="none" stroke="#FFFFFF" stroke-width="0.9302" d="M7.79,27.279c0.872,0,1.362-0.705,1.362-1.576V12.651
			c0-0.873-0.49-1.579-1.362-1.579"/>
		<rect x="1.751" y="0.978" fill="none" stroke="#FFFFFF" stroke-width="0.9044" width="28.366" height="28.039"/>
	</g>
</g>
</svg>
