<?xml version="1.0" encoding="utf-8"?>
<!-- Generator: Adobe Illustrator 16.0.0, SVG Export Plug-In . SVG Version: 6.00 Build 0)  -->
<!DOCTYPE svg PUBLIC "-//W3C//DTD SVG 1.1//EN" "http://www.w3.org/Graphics/SVG/1.1/DTD/svg11.dtd">
<svg version="1.1" id="Layer_1" xmlns="http://www.w3.org/2000/svg" xmlns:xlink="http://www.w3.org/1999/xlink" x="0px" y="0px"
	 width="237.567px" height="27.882px" viewBox="0 0 237.567 27.882" enable-background="new 0 0 237.567 27.882"
	 xml:space="preserve">
<g>
	<path fill="#FFFFFF" d="M40.706,15.669v2.045c0,1.67,0.691,2.103,1.411,2.103c0.922,0,1.469-0.575,1.469-2.708h4.667
		c-0.058,3.773-1.815,5.878-6.106,5.878c-5.012,0-6.625-2.247-6.625-8.181c0-5.963,1.958-8.21,6.625-8.21
		c4.148,0,6.25,1.843,6.25,7.49v1.583H40.706z M43.558,12.155c0-1.642-0.345-2.39-1.44-2.39c-1.065,0-1.411,0.749-1.411,2.39v0.691
		h2.852L43.558,12.155L43.558,12.155z"/>
	<path fill="#FFFFFF" d="M49.059,2.016h7.776c6.194,0,6.51,4.897,6.51,10.284s-0.316,10.284-6.51,10.284h-7.776V2.016z
		 M54.416,18.722h1.066c2.073,0,2.333-0.864,2.333-6.423c0-5.56-0.26-6.423-2.333-6.423h-1.066V18.722z"/>
	<path fill="#FFFFFF" d="M69.076,15.669v2.045c0,1.67,0.692,2.103,1.412,2.103c0.921,0,1.468-0.575,1.468-2.708h4.667
		c-0.057,3.773-1.815,5.878-6.107,5.878c-5.012,0-6.625-2.247-6.625-8.181c0-5.963,1.958-8.21,6.625-8.21
		c4.148,0,6.251,1.843,6.251,7.49v1.583H69.076z M71.928,12.155c0-1.642-0.347-2.39-1.44-2.39c-1.066,0-1.412,0.749-1.412,2.39
		v0.691h2.852V12.155z"/>
	<path fill="#FFFFFF" d="M85.177,6.999h4.839v15.324c0,4.264-2.851,5.56-6.51,5.56c-3.341,0-5.963-0.834-6.049-4.378h4.666
		c0,0.777,0.489,1.21,1.296,1.21c0.777,0,1.584-0.201,1.584-1.931v-2.967h-0.058c-0.662,1.787-2.074,2.334-3.514,2.334
		c-2.075,0-4.552-1.21-4.552-7.691c0-6.02,1.786-7.863,4.811-7.863c1.44,0,2.851,0.691,3.428,2.564h0.058L85.177,6.999L85.177,6.999
		z M83.564,18.291c0.951,0,1.44-0.634,1.44-3.917c0-3.256-0.489-3.917-1.44-3.917c-0.98,0-1.498,0.662-1.498,3.917
		C82.066,17.657,82.584,18.291,83.564,18.291z"/>
	<path fill="#FFFFFF" d="M91.022,6.999h5.013v2.477h0.057c0.576-1.872,1.958-2.88,3.485-2.88h0.835v4.839
		c-0.461-0.086-0.864-0.115-1.296-0.115c-1.843,0-2.909,0.72-2.909,2.766v8.498h-5.186L91.022,6.999L91.022,6.999z"/>
	<path fill="#FFFFFF" d="M105.021,15.669v2.045c0,1.67,0.691,2.103,1.411,2.103c0.922,0,1.469-0.575,1.469-2.708h4.667
		c-0.058,3.773-1.815,5.878-6.106,5.878c-5.013,0-6.626-2.247-6.626-8.181c0-5.963,1.959-8.21,6.626-8.21
		c4.148,0,6.25,1.843,6.25,7.49v1.583H105.021z M107.872,12.155c0-1.642-0.346-2.39-1.44-2.39c-1.065,0-1.411,0.749-1.411,2.39
		v0.691h2.852L107.872,12.155L107.872,12.155z"/>
	<path fill="#FFFFFF" d="M117.865,15.669v2.045c0,1.67,0.691,2.103,1.411,2.103c0.922,0,1.469-0.575,1.469-2.708h4.667
		c-0.057,3.773-1.815,5.878-6.107,5.878c-5.012,0-6.625-2.247-6.625-8.181c0-5.963,1.958-8.21,6.625-8.21
		c4.148,0,6.251,1.843,6.251,7.49v1.583H117.865z M120.718,12.155c0-1.642-0.346-2.39-1.44-2.39c-1.065,0-1.411,0.749-1.411,2.39
		v0.691h2.852L120.718,12.155L120.718,12.155z"/>
	<path fill="#FFFFFF" d="M129.99,17.744c0,0.604,0.115,1.182,0.375,1.527c0.259,0.344,0.633,0.546,1.095,0.546
		c0.806,0,1.497-0.49,1.497-1.324c0-2.766-7.518-1.124-7.518-7.028c0-2.737,1.987-4.869,6.193-4.869
		c3.889,0,5.847,1.642,5.847,4.897h-4.493c0-1.325-0.518-1.728-1.382-1.728c-0.778,0-1.325,0.46-1.325,1.209
		c0,2.564,7.519,0.835,7.519,6.799c0,3.023-2.334,5.214-6.251,5.214c-4.349,0-6.106-1.844-6.106-5.243H129.99z"/>
	<path fill="#FFFFFF" d="M138.603,16.879h4.839v5.705h-4.839V16.879z"/>
	<path fill="#FFFFFF" d="M144.882,6.999h5.184v16.592c0,3.629-2.102,4.062-4.81,4.062c-0.749,0-1.584-0.059-2.333-0.145v-3.485
		c1.296,0,1.959-0.173,1.959-1.094V6.999z M144.882,2.016h5.184v3.859h-5.184V2.016z"/>
	<path fill="#FFFFFF" d="M158.793,12.299c0-1.296-0.346-1.843-1.268-1.843c-0.921,0-1.267,0.547-1.267,1.843v10.284h-5.186V6.999
		h5.013V8.9h0.058c0.662-1.526,1.987-2.304,3.773-2.304c2.132,0,3.168,0.807,3.803,2.391c0.805-1.756,2.333-2.391,3.917-2.391
		c2.275,0,4.062,0.893,4.062,4.235v11.753h-5.186V12.299c0-1.296-0.346-1.843-1.268-1.843s-1.267,0.547-1.267,1.843v10.284h-5.186
		V12.299L158.793,12.299z"/>
	<path fill="#FFFFFF" d="M172.706,2.016h5.185v20.567h-5.185V2.016z"/>
	<path fill="#FFFFFF" d="M183.045,17.744c0,0.604,0.116,1.182,0.375,1.527c0.259,0.345,0.634,0.546,1.094,0.546
		c0.807,0,1.498-0.49,1.498-1.324c0-2.766-7.52-1.124-7.52-7.028c0-2.737,1.988-4.869,6.194-4.869c3.889,0,5.847,1.642,5.847,4.897
		h-4.494c0-1.325-0.519-1.728-1.383-1.728c-0.777,0-1.324,0.46-1.324,1.209c0,2.564,7.518,0.835,7.518,6.799
		c0,3.023-2.333,5.214-6.25,5.214c-4.35,0-6.107-1.844-6.107-5.243H183.045z"/>
	<path fill="#FFFFFF" d="M191.657,16.879h4.839v5.705h-4.839V16.879z"/>
	<path fill="#FFFFFF" d="M202.573,15.669v2.045c0,1.67,0.691,2.103,1.411,2.103c0.922,0,1.469-0.575,1.469-2.708h4.667
		c-0.058,3.773-1.814,5.878-6.106,5.878c-5.013,0-6.626-2.247-6.626-8.181c0-5.963,1.959-8.21,6.626-8.21
		c4.147,0,6.25,1.843,6.25,7.49v1.583H202.573z M205.424,12.155c0-1.642-0.346-2.39-1.44-2.39c-1.065,0-1.411,0.749-1.411,2.39
		v0.691h2.852V12.155z"/>
	<path fill="#FFFFFF" d="M218.327,2.016h5.186v20.567H218.5v-2.132h-0.057c-0.634,1.729-1.699,2.535-3.543,2.535
		c-3.485,0-4.667-2.767-4.667-8.527c0-5.876,1.902-7.863,4.782-7.863c1.469,0,2.735,0.576,3.254,2.16h0.058V2.016L218.327,2.016z
		 M216.888,19.126c1.182,0,1.439-0.979,1.439-4.321c0-3.371-0.258-4.35-1.439-4.35c-1.21,0-1.469,0.979-1.469,4.35
		C215.419,18.147,215.678,19.126,216.888,19.126z"/>
	<path fill="#FFFFFF" d="M224.663,6.999h5.185v10.283c0,1.295,0.346,1.844,1.268,1.844s1.267-0.549,1.267-1.844V6.999h5.186v15.584
		h-5.012v-1.901h-0.058c-0.663,1.525-1.986,2.305-3.773,2.305c-2.275,0-4.062-0.894-4.062-4.235V6.999z"/>
</g>
<g>
	<rect x="0" fill="#AA0000" width="26.886" height="26.694"/>
	<polygon fill="none" stroke="#FFFFFF" stroke-width="0.8308" points="3.498,8.673 22.969,8.634 13.233,1.716 	"/>
	<path fill="none" stroke="#FFFFFF" stroke-width="0.8308" d="M10.632,24.284c0.779,0,1.408-0.63,1.408-1.408V11.218
		c0-0.778-0.63-1.41-1.408-1.41l0,0c-0.778,0-1.409,0.631-1.409,1.41v11.658C9.223,23.654,9.854,24.284,10.632,24.284L10.632,24.284
		z"/>
	<path fill="none" stroke="#FFFFFF" stroke-width="0.8308" d="M15.461,24.268c0.778,0,1.409-0.633,1.409-1.412V11.2
		c0-0.777-0.631-1.409-1.409-1.409l0,0c-0.779,0-1.41,0.631-1.41,1.409v11.657C14.051,23.636,14.682,24.268,15.461,24.268
		L15.461,24.268z"/>
	<path fill="none" stroke="#FFFFFF" stroke-width="0.8308" d="M19.832,9.863c-0.778,0-1.216,0.63-1.216,1.41v11.655
		c0,0.779,0.438,1.412,1.216,1.412"/>
	<path fill="none" stroke="#FFFFFF" stroke-width="0.8308" d="M6.17,24.364c0.779,0,1.217-0.63,1.217-1.407V11.299
		c0-0.779-0.438-1.41-1.217-1.41"/>
	<rect x="0.776" y="0.873" fill="none" stroke="#FFFFFF" stroke-width="0.8078" width="25.335" height="25.042"/>
</g>
</svg>
